<svg width="25" height="14" viewBox="0 0 25 14" fill="none" xmlns="http://www.w3.org/2000/svg">
<path d="M-3.02792e-05 13V5.4H1.43997V13H-3.02792e-05ZM5.13597 13V8.408C5.13597 7.84267 4.95997 7.4 4.60797 7.08C4.26664 6.74933 3.83464 6.584 3.31197 6.584C2.95997 6.584 2.6453 6.65867 2.36797 6.808C2.09064 6.95733 1.86664 7.16533 1.69597 7.432C1.5253 7.69867 1.43997 8.01867 1.43997 8.392L0.84797 8.104C0.84797 7.528 0.970636 7.02667 1.21597 6.6C1.47197 6.17333 1.81864 5.84267 2.25597 5.608C2.6933 5.36267 3.18397 5.24 3.72797 5.24C4.2613 5.24 4.7413 5.35733 5.16797 5.592C5.6053 5.82667 5.94664 6.15733 6.19197 6.584C6.44797 7.01067 6.57597 7.51733 6.57597 8.104V13H5.13597ZM10.272 13V8.408C10.272 7.84267 10.096 7.4 9.74397 7.08C9.40264 6.74933 8.97597 6.584 8.46397 6.584C8.11197 6.584 7.79197 6.65867 7.50397 6.808C7.22664 6.95733 7.00264 7.16533 6.83197 7.432C6.6613 7.69867 6.57597 8.01867 6.57597 8.392L5.75997 8.104C5.79197 7.51733 5.94664 7.016 6.22397 6.6C6.51197 6.17333 6.87997 5.84267 7.32797 5.608C7.77597 5.36267 8.26664 5.24 8.79997 5.24C9.35464 5.24 9.85064 5.35733 10.288 5.592C10.7253 5.82667 11.072 6.15733 11.328 6.584C11.5946 7.01067 11.728 7.52267 11.728 8.12V13H10.272ZM13.7035 13V5.4H15.1435V13H13.7035ZM14.4235 3.88C14.1568 3.88 13.9381 3.79467 13.7675 3.624C13.5968 3.44267 13.5115 3.21867 13.5115 2.952C13.5115 2.696 13.5968 2.48267 13.7675 2.312C13.9381 2.13067 14.1568 2.04 14.4235 2.04C14.6901 2.04 14.9088 2.13067 15.0795 2.312C15.2501 2.48267 15.3355 2.696 15.3355 2.952C15.3355 3.21867 15.2501 3.44267 15.0795 3.624C14.9088 3.79467 14.6901 3.88 14.4235 3.88ZM22.6416 13V8.568C22.6416 7.992 22.4603 7.51733 22.0976 7.144C21.7349 6.77067 21.2656 6.584 20.6896 6.584C20.3056 6.584 19.9643 6.66933 19.6656 6.84C19.3669 7.01067 19.1323 7.24533 18.9616 7.544C18.7909 7.84267 18.7056 8.184 18.7056 8.568L18.1136 8.232C18.1136 7.656 18.2416 7.144 18.4976 6.696C18.7536 6.248 19.1109 5.896 19.5696 5.64C20.0283 5.37333 20.5456 5.24 21.1216 5.24C21.6976 5.24 22.2043 5.384 22.6416 5.672C23.0896 5.96 23.4416 6.33867 23.6976 6.808C23.9536 7.26667 24.0816 7.75733 24.0816 8.28V13H22.6416ZM17.2656 13V5.4H18.7056V13H17.2656Z" fill="white"/>
</svg>
