<svg width="11" height="14" viewBox="0 0 11 14" fill="none" xmlns="http://www.w3.org/2000/svg">
<path d="M7.54919 13V8.568C7.54919 7.992 7.36785 7.51733 7.00519 7.144C6.64252 6.77067 6.17319 6.584 5.59719 6.584C5.21319 6.584 4.87185 6.66933 4.57319 6.84C4.27452 7.01067 4.03985 7.24533 3.86919 7.544C3.69852 7.84267 3.61319 8.184 3.61319 8.568L3.02119 8.232C3.02119 7.656 3.14919 7.144 3.40519 6.696C3.66119 6.248 4.01852 5.896 4.47719 5.64C4.93585 5.37333 5.45319 5.24 6.02919 5.24C6.60519 5.24 7.11185 5.368 7.54919 5.624C7.99719 5.88 8.34919 6.23733 8.60519 6.696C8.86119 7.15467 8.98919 7.68267 8.98919 8.28V13H7.54919ZM2.17319 13V1.576H3.61319V13H2.17319Z" fill="white"/>
</svg>
