<svg width="73" height="96" viewBox="0 0 73 96" fill="none" xmlns="http://www.w3.org/2000/svg">
<rect width="73" height="96" rx="24" fill="#6C7B8F" fill-opacity="0.32"/>
<path d="M21.408 32V20.992H22.24L26.992 28.784H26.4L31.152 20.992H31.984V32H30.8V23.04L31.072 23.104L27.104 29.616H26.272L22.304 23.104L22.576 23.04V32H21.408ZM37.775 32.16C37.0603 32.16 36.4203 31.9893 35.855 31.648C35.2897 31.296 34.8417 30.8267 34.511 30.24C34.191 29.6533 34.031 28.992 34.031 28.256C34.031 27.5093 34.191 26.8427 34.511 26.256C34.8417 25.6587 35.2897 25.1893 35.855 24.848C36.4203 24.496 37.055 24.32 37.759 24.32C38.335 24.32 38.847 24.4373 39.295 24.672C39.7537 24.896 40.1217 25.216 40.399 25.632C40.687 26.0373 40.863 26.512 40.927 27.056V29.408C40.863 29.952 40.687 30.432 40.399 30.848C40.1217 31.264 39.7537 31.5893 39.295 31.824C38.847 32.048 38.3403 32.16 37.775 32.16ZM37.951 31.088C38.7297 31.088 39.3537 30.8267 39.823 30.304C40.303 29.7813 40.543 29.0933 40.543 28.24C40.543 27.6747 40.431 27.1787 40.207 26.752C39.9937 26.3147 39.6897 25.9787 39.295 25.744C38.911 25.4987 38.4577 25.376 37.935 25.376C37.4017 25.376 36.927 25.4987 36.511 25.744C36.1057 25.9893 35.7803 26.3307 35.535 26.768C35.3003 27.1947 35.183 27.6853 35.183 28.24C35.183 28.7947 35.3003 29.2853 35.535 29.712C35.7803 30.1387 36.111 30.4747 36.527 30.72C36.943 30.9653 37.4177 31.088 37.951 31.088ZM40.479 32V29.984L40.703 28.128L40.479 26.32V24.48H41.599V32H40.479ZM43.8704 32V24.48H44.9904V32H43.8704ZM44.9904 27.616L44.5264 27.408C44.5264 26.4587 44.7557 25.7067 45.2144 25.152C45.6837 24.5973 46.3237 24.32 47.1344 24.32C47.5077 24.32 47.849 24.3893 48.1584 24.528C48.4677 24.656 48.7557 24.864 49.0224 25.152L48.2864 25.936C48.105 25.7333 47.9024 25.5893 47.6784 25.504C47.465 25.4187 47.2197 25.376 46.9424 25.376C46.3664 25.376 45.897 25.568 45.5344 25.952C45.1717 26.3253 44.9904 26.88 44.9904 27.616ZM50.4606 32.16C50.194 32.16 49.9753 32.0693 49.8046 31.888C49.634 31.7067 49.5486 31.488 49.5486 31.232C49.5486 30.976 49.634 30.7627 49.8046 30.592C49.9753 30.4107 50.194 30.32 50.4606 30.32C50.7166 30.32 50.93 30.4107 51.1006 30.592C51.2713 30.7627 51.3566 30.976 51.3566 31.232C51.3566 31.488 51.2713 31.7067 51.1006 31.888C50.93 32.0693 50.7166 32.16 50.4606 32.16Z" fill="white"/>
<rect x="14" y="52" width="45" height="36" rx="16" fill="#6C7B8F" fill-opacity="0.64"/>
<path d="M28.028 75.088L32.124 70.768C32.54 70.3413 32.8653 69.9733 33.1 69.664C33.3347 69.344 33.5 69.0507 33.596 68.784C33.7027 68.5173 33.756 68.24 33.756 67.952C33.756 67.3867 33.5747 66.944 33.212 66.624C32.8493 66.304 32.38 66.144 31.804 66.144C31.2387 66.144 30.7427 66.2827 30.316 66.56C29.8893 66.8267 29.5107 67.2427 29.18 67.808L28.124 66.928C28.5613 66.2027 29.0893 65.6587 29.708 65.296C30.3267 64.9227 31.0413 64.736 31.852 64.736C32.5347 64.736 33.1267 64.8693 33.628 65.136C34.14 65.4027 34.5347 65.776 34.812 66.256C35.0893 66.736 35.228 67.296 35.228 67.936C35.228 68.3947 35.1693 68.8053 35.052 69.168C34.9453 69.5307 34.748 69.904 34.46 70.288C34.1827 70.6613 33.7933 71.1093 33.292 71.632L29.98 75.04L28.028 75.088ZM28.028 76V75.088L29.308 74.656H35.484V76H28.028ZM40.1083 76.16C39.3829 76.16 38.7216 76.0267 38.1243 75.76C37.5376 75.4827 37.0416 75.0827 36.6363 74.56L37.6603 73.536C37.9056 73.9093 38.2416 74.208 38.6683 74.432C39.0949 74.6453 39.5696 74.752 40.0923 74.752C40.5829 74.752 41.0043 74.6613 41.3563 74.48C41.7189 74.288 42.0016 74.0213 42.2043 73.68C42.4176 73.3387 42.5243 72.944 42.5243 72.496C42.5243 72.0373 42.4176 71.6427 42.2043 71.312C42.0016 70.9707 41.7136 70.7093 41.3403 70.528C40.9669 70.3467 40.5243 70.256 40.0123 70.256C39.8203 70.256 39.6283 70.272 39.4363 70.304C39.2443 70.3253 39.0576 70.3627 38.8763 70.416L39.5163 69.552C39.7189 69.456 39.9376 69.3813 40.1723 69.328C40.4069 69.2747 40.6416 69.248 40.8763 69.248C41.4736 69.248 42.0069 69.3867 42.4763 69.664C42.9563 69.9413 43.3349 70.3307 43.6123 70.832C43.9003 71.3333 44.0443 71.9147 44.0443 72.576C44.0443 73.28 43.8736 73.904 43.5323 74.448C43.2016 74.9813 42.7429 75.4027 42.1563 75.712C41.5696 76.0107 40.8869 76.16 40.1083 76.16ZM38.8763 70.416V69.504L42.1243 65.808L43.9163 65.792L40.5723 69.584L38.8763 70.416ZM37.1643 66.24V64.896H43.9163V65.792L42.6043 66.24H37.1643Z" fill="white"/>
</svg>
