<svg width="526" height="300" viewBox="0 0 526 300" fill="none" xmlns="http://www.w3.org/2000/svg">
<rect width="526" height="300" rx="24" fill="#252B33" fill-opacity="0.32"/>
<path d="M23.392 32.16C22.7733 32.16 22.2293 32.0427 21.76 31.808C21.3013 31.5627 20.9067 31.232 20.576 30.816L21.408 30.048C21.6427 30.368 21.92 30.6133 22.24 30.784C22.56 30.944 22.9333 31.024 23.36 31.024C23.744 31.024 24.096 30.944 24.416 30.784C24.736 30.6133 24.992 30.352 25.184 30C25.376 29.648 25.472 29.2053 25.472 28.672V20.992H26.656V28.656C26.656 29.392 26.5067 30.0213 26.208 30.544C25.92 31.0667 25.5253 31.4667 25.024 31.744C24.5333 32.0213 23.9893 32.16 23.392 32.16ZM32.3219 32.16C31.6072 32.16 30.9672 31.9893 30.4019 31.648C29.8365 31.296 29.3885 30.8267 29.0579 30.24C28.7379 29.6533 28.5779 28.992 28.5779 28.256C28.5779 27.5093 28.7379 26.8427 29.0579 26.256C29.3885 25.6587 29.8365 25.1893 30.4019 24.848C30.9672 24.496 31.6019 24.32 32.3059 24.32C32.8819 24.32 33.3939 24.4373 33.8419 24.672C34.3005 24.896 34.6685 25.216 34.9459 25.632C35.2339 26.0373 35.4099 26.512 35.4739 27.056V29.408C35.4099 29.952 35.2339 30.432 34.9459 30.848C34.6685 31.264 34.3005 31.5893 33.8419 31.824C33.3939 32.048 32.8872 32.16 32.3219 32.16ZM32.4979 31.088C33.2765 31.088 33.9005 30.8267 34.3699 30.304C34.8499 29.7813 35.0899 29.0933 35.0899 28.24C35.0899 27.6747 34.9779 27.1787 34.7539 26.752C34.5405 26.3147 34.2365 25.9787 33.8419 25.744C33.4579 25.4987 33.0045 25.376 32.4819 25.376C31.9485 25.376 31.4739 25.4987 31.0579 25.744C30.6525 25.9893 30.3272 26.3307 30.0819 26.768C29.8472 27.1947 29.7299 27.6853 29.7299 28.24C29.7299 28.7947 29.8472 29.2853 30.0819 29.712C30.3272 30.1387 30.6579 30.4747 31.0739 30.72C31.4899 30.9653 31.9645 31.088 32.4979 31.088ZM35.0259 32V29.984L35.2499 28.128L35.0259 26.32V24.48H36.1459V32H35.0259ZM43.8893 32V27.584C43.8893 26.9227 43.6919 26.3893 43.2973 25.984C42.9133 25.568 42.4013 25.36 41.7613 25.36C41.3239 25.36 40.9399 25.456 40.6093 25.648C40.2786 25.84 40.0173 26.1013 39.8253 26.432C39.6333 26.7627 39.5373 27.1413 39.5373 27.568L39.0253 27.28C39.0253 26.7147 39.1586 26.208 39.4253 25.76C39.6919 25.312 40.0493 24.96 40.4973 24.704C40.9559 24.448 41.4786 24.32 42.0653 24.32C42.6413 24.32 43.1533 24.4587 43.6013 24.736C44.0493 25.0133 44.3959 25.3867 44.6413 25.856C44.8973 26.3253 45.0253 26.8373 45.0253 27.392V32H43.8893ZM38.4173 32V24.48H39.5373V32H38.4173ZM48.3044 32.16C48.0377 32.16 47.819 32.0693 47.6484 31.888C47.4777 31.7067 47.3924 31.488 47.3924 31.232C47.3924 30.976 47.4777 30.7627 47.6484 30.592C47.819 30.4107 48.0377 30.32 48.3044 30.32C48.5604 30.32 48.7737 30.4107 48.9444 30.592C49.115 30.7627 49.2004 30.976 49.2004 31.232C49.2004 31.488 49.115 31.7067 48.9444 31.888C48.7737 32.0693 48.5604 32.16 48.3044 32.16Z" fill="white"/>
<path d="M62.408 32V20.992H63.576V32H62.408ZM63.176 27.024V25.952H69.08V27.024H63.176ZM63.176 22.064V20.992H69.352V22.064H63.176ZM74.3424 32.16C73.585 32.16 72.9077 31.9893 72.3104 31.648C71.713 31.3067 71.2384 30.8373 70.8864 30.24C70.545 29.6427 70.3744 28.9707 70.3744 28.224C70.3744 27.488 70.545 26.8267 70.8864 26.24C71.2277 25.6427 71.6917 25.1733 72.2784 24.832C72.865 24.4907 73.521 24.32 74.2464 24.32C74.929 24.32 75.5317 24.4747 76.0544 24.784C76.5877 25.0933 77.0037 25.5253 77.3024 26.08C77.6117 26.624 77.7664 27.2533 77.7664 27.968C77.7664 28.0533 77.761 28.1547 77.7504 28.272C77.7397 28.3787 77.7184 28.5067 77.6864 28.656H71.1744V27.696H77.0784L76.6784 28.048C76.689 27.4933 76.593 27.0187 76.3904 26.624C76.1984 26.2187 75.9157 25.9093 75.5424 25.696C75.1797 25.472 74.737 25.36 74.2144 25.36C73.6704 25.36 73.1957 25.4773 72.7904 25.712C72.385 25.9467 72.065 26.2773 71.8304 26.704C71.6064 27.12 71.4944 27.616 71.4944 28.192C71.4944 28.768 71.6117 29.2747 71.8464 29.712C72.0917 30.1493 72.4277 30.4907 72.8544 30.736C73.2917 30.9813 73.793 31.104 74.3584 31.104C74.817 31.104 75.2384 31.024 75.6224 30.864C76.0064 30.6933 76.3317 30.4427 76.5984 30.112L77.3184 30.848C76.9664 31.264 76.529 31.5893 76.0064 31.824C75.4944 32.048 74.9397 32.16 74.3424 32.16ZM83.3678 32.16C82.7918 32.16 82.2744 32.0427 81.8158 31.808C81.3571 31.5733 80.9784 31.2533 80.6798 30.848C80.3918 30.432 80.2158 29.952 80.1518 29.408V27.056C80.2158 26.5013 80.3971 26.0213 80.6957 25.616C80.9944 25.2 81.3731 24.88 81.8318 24.656C82.3011 24.432 82.8131 24.32 83.3678 24.32C84.0611 24.32 84.6851 24.496 85.2398 24.848C85.7944 25.1893 86.2318 25.6587 86.5518 26.256C86.8824 26.8427 87.0478 27.5093 87.0478 28.256C87.0478 28.992 86.8878 29.6533 86.5677 30.24C86.2478 30.8267 85.8051 31.296 85.2398 31.648C84.6851 31.9893 84.0611 32.16 83.3678 32.16ZM79.4798 32V20.672H80.5998V26.32L80.3758 28.128L80.5998 29.984V32H79.4798ZM83.1758 31.088C83.7091 31.088 84.1784 30.9707 84.5838 30.736C84.9891 30.4907 85.3038 30.1547 85.5278 29.728C85.7624 29.2907 85.8798 28.7947 85.8798 28.24C85.8798 27.6747 85.7624 27.1787 85.5278 26.752C85.3038 26.3253 84.9891 25.9893 84.5838 25.744C84.1784 25.4987 83.7144 25.376 83.1918 25.376C82.6691 25.376 82.2051 25.4987 81.7998 25.744C81.4051 25.9893 81.0958 26.3253 80.8718 26.752C80.6478 27.1787 80.5358 27.6747 80.5358 28.24C80.5358 28.7947 80.6478 29.2907 80.8718 29.728C81.0958 30.1547 81.4051 30.4907 81.7998 30.736C82.1944 30.9707 82.6531 31.088 83.1758 31.088ZM89.6638 32.16C89.3971 32.16 89.1784 32.0693 89.0078 31.888C88.8371 31.7067 88.7518 31.488 88.7518 31.232C88.7518 30.976 88.8371 30.7627 89.0078 30.592C89.1784 30.4107 89.3971 30.32 89.6638 30.32C89.9198 30.32 90.1331 30.4107 90.3038 30.592C90.4744 30.7627 90.5598 30.976 90.5598 31.232C90.5598 31.488 90.4744 31.7067 90.3038 31.888C90.1331 32.0693 89.9198 32.16 89.6638 32.16Z" fill="white"/>
<path d="M103.408 32V20.992H104.24L108.992 28.784H108.4L113.152 20.992H113.984V32H112.8V23.04L113.072 23.104L109.104 29.616H108.272L104.304 23.104L104.576 23.04V32H103.408ZM119.775 32.16C119.06 32.16 118.42 31.9893 117.855 31.648C117.29 31.296 116.842 30.8267 116.511 30.24C116.191 29.6533 116.031 28.992 116.031 28.256C116.031 27.5093 116.191 26.8427 116.511 26.256C116.842 25.6587 117.29 25.1893 117.855 24.848C118.42 24.496 119.055 24.32 119.759 24.32C120.335 24.32 120.847 24.4373 121.295 24.672C121.754 24.896 122.122 25.216 122.399 25.632C122.687 26.0373 122.863 26.512 122.927 27.056V29.408C122.863 29.952 122.687 30.432 122.399 30.848C122.122 31.264 121.754 31.5893 121.295 31.824C120.847 32.048 120.34 32.16 119.775 32.16ZM119.951 31.088C120.73 31.088 121.354 30.8267 121.823 30.304C122.303 29.7813 122.543 29.0933 122.543 28.24C122.543 27.6747 122.431 27.1787 122.207 26.752C121.994 26.3147 121.69 25.9787 121.295 25.744C120.911 25.4987 120.458 25.376 119.935 25.376C119.402 25.376 118.927 25.4987 118.511 25.744C118.106 25.9893 117.78 26.3307 117.535 26.768C117.3 27.1947 117.183 27.6853 117.183 28.24C117.183 28.7947 117.3 29.2853 117.535 29.712C117.78 30.1387 118.111 30.4747 118.527 30.72C118.943 30.9653 119.418 31.088 119.951 31.088ZM122.479 32V29.984L122.703 28.128L122.479 26.32V24.48H123.599V32H122.479ZM125.87 32V24.48H126.99V32H125.87ZM126.99 27.616L126.526 27.408C126.526 26.4587 126.756 25.7067 127.214 25.152C127.684 24.5973 128.324 24.32 129.134 24.32C129.508 24.32 129.849 24.3893 130.158 24.528C130.468 24.656 130.756 24.864 131.022 25.152L130.286 25.936C130.105 25.7333 129.902 25.5893 129.678 25.504C129.465 25.4187 129.22 25.376 128.942 25.376C128.366 25.376 127.897 25.568 127.534 25.952C127.172 26.3253 126.99 26.88 126.99 27.616ZM132.461 32.16C132.194 32.16 131.975 32.0693 131.805 31.888C131.634 31.7067 131.549 31.488 131.549 31.232C131.549 30.976 131.634 30.7627 131.805 30.592C131.975 30.4107 132.194 30.32 132.461 30.32C132.717 30.32 132.93 30.4107 133.101 30.592C133.271 30.7627 133.357 30.976 133.357 31.232C133.357 31.488 133.271 31.7067 133.101 31.888C132.93 32.0693 132.717 32.16 132.461 32.16Z" fill="white"/>
<path d="M145.592 32L150.104 20.992H150.984L155.448 32H154.184L150.296 22.272H150.76L146.84 32H145.592ZM147.656 29.136V28.096H153.416V29.136H147.656ZM161.071 32.16C160.495 32.16 159.978 32.0427 159.519 31.808C159.06 31.5733 158.682 31.2533 158.383 30.848C158.095 30.432 157.919 29.952 157.855 29.408V27.056C157.919 26.5013 158.1 26.0213 158.399 25.616C158.698 25.2 159.076 24.88 159.535 24.656C160.004 24.432 160.516 24.32 161.071 24.32C161.764 24.32 162.388 24.496 162.943 24.848C163.498 25.1893 163.935 25.6587 164.255 26.256C164.586 26.8427 164.751 27.5093 164.751 28.256C164.751 28.992 164.591 29.6533 164.271 30.24C163.951 30.8267 163.508 31.296 162.943 31.648C162.388 31.9893 161.764 32.16 161.071 32.16ZM157.183 35.168V24.48H158.303V26.4L158.079 28.224L158.303 30.064V35.168H157.183ZM160.879 31.088C161.412 31.088 161.882 30.9707 162.287 30.736C162.692 30.4907 163.007 30.1547 163.231 29.728C163.466 29.2907 163.583 28.7947 163.583 28.24C163.583 27.6747 163.466 27.1787 163.231 26.752C163.007 26.3253 162.692 25.9893 162.287 25.744C161.882 25.4987 161.418 25.376 160.895 25.376C160.372 25.376 159.908 25.4987 159.503 25.744C159.108 25.9893 158.799 26.3253 158.575 26.752C158.351 27.1787 158.239 27.6747 158.239 28.24C158.239 28.7947 158.351 29.2907 158.575 29.728C158.799 30.1547 159.108 30.4907 159.503 30.736C159.898 30.9707 160.356 31.088 160.879 31.088ZM166.542 32V24.48H167.662V32H166.542ZM167.662 27.616L167.198 27.408C167.198 26.4587 167.428 25.7067 167.886 25.152C168.356 24.5973 168.996 24.32 169.806 24.32C170.18 24.32 170.521 24.3893 170.83 24.528C171.14 24.656 171.428 24.864 171.694 25.152L170.958 25.936C170.777 25.7333 170.574 25.5893 170.35 25.504C170.137 25.4187 169.892 25.376 169.614 25.376C169.038 25.376 168.569 25.568 168.206 25.952C167.844 26.3253 167.662 26.88 167.662 27.616ZM173.133 32.16C172.866 32.16 172.647 32.0693 172.477 31.888C172.306 31.7067 172.221 31.488 172.221 31.232C172.221 30.976 172.306 30.7627 172.477 30.592C172.647 30.4107 172.866 30.32 173.133 30.32C173.389 30.32 173.602 30.4107 173.773 30.592C173.943 30.7627 174.029 30.976 174.029 31.232C174.029 31.488 173.943 31.7067 173.773 31.888C173.602 32.0693 173.389 32.16 173.133 32.16Z" fill="white"/>
<path d="M187.408 32V20.992H188.24L192.992 28.784H192.4L197.152 20.992H197.984V32H196.8V23.04L197.072 23.104L193.104 29.616H192.272L188.304 23.104L188.576 23.04V32H187.408ZM203.775 32.16C203.06 32.16 202.42 31.9893 201.855 31.648C201.29 31.296 200.842 30.8267 200.511 30.24C200.191 29.6533 200.031 28.992 200.031 28.256C200.031 27.5093 200.191 26.8427 200.511 26.256C200.842 25.6587 201.29 25.1893 201.855 24.848C202.42 24.496 203.055 24.32 203.759 24.32C204.335 24.32 204.847 24.4373 205.295 24.672C205.754 24.896 206.122 25.216 206.399 25.632C206.687 26.0373 206.863 26.512 206.927 27.056V29.408C206.863 29.952 206.687 30.432 206.399 30.848C206.122 31.264 205.754 31.5893 205.295 31.824C204.847 32.048 204.34 32.16 203.775 32.16ZM203.951 31.088C204.73 31.088 205.354 30.8267 205.823 30.304C206.303 29.7813 206.543 29.0933 206.543 28.24C206.543 27.6747 206.431 27.1787 206.207 26.752C205.994 26.3147 205.69 25.9787 205.295 25.744C204.911 25.4987 204.458 25.376 203.935 25.376C203.402 25.376 202.927 25.4987 202.511 25.744C202.106 25.9893 201.78 26.3307 201.535 26.768C201.3 27.1947 201.183 27.6853 201.183 28.24C201.183 28.7947 201.3 29.2853 201.535 29.712C201.78 30.1387 202.111 30.4747 202.527 30.72C202.943 30.9653 203.418 31.088 203.951 31.088ZM206.479 32V29.984L206.703 28.128L206.479 26.32V24.48H207.599V32H206.479ZM212.382 32.032L209.086 24.48H210.318L212.974 30.784H212.51L215.31 24.48H216.558L213.022 32.032H212.382ZM210.334 35.168L212.398 30.896L213.022 32.032L211.566 35.168H210.334ZM218.117 32.16C217.85 32.16 217.632 32.0693 217.461 31.888C217.29 31.7067 217.205 31.488 217.205 31.232C217.205 30.976 217.29 30.7627 217.461 30.592C217.632 30.4107 217.85 30.32 218.117 30.32C218.373 30.32 218.586 30.4107 218.757 30.592C218.928 30.7627 219.013 30.976 219.013 31.232C219.013 31.488 218.928 31.7067 218.757 31.888C218.586 32.0693 218.373 32.16 218.117 32.16Z" fill="white"/>
<path d="M234.392 32.16C233.773 32.16 233.229 32.0427 232.76 31.808C232.301 31.5627 231.907 31.232 231.576 30.816L232.408 30.048C232.643 30.368 232.92 30.6133 233.24 30.784C233.56 30.944 233.933 31.024 234.36 31.024C234.744 31.024 235.096 30.944 235.416 30.784C235.736 30.6133 235.992 30.352 236.184 30C236.376 29.648 236.472 29.2053 236.472 28.672V20.992H237.656V28.656C237.656 29.392 237.507 30.0213 237.208 30.544C236.92 31.0667 236.525 31.4667 236.024 31.744C235.533 32.0213 234.989 32.16 234.392 32.16ZM243.034 32.16C242.426 32.16 241.882 32.0213 241.402 31.744C240.922 31.456 240.543 31.0667 240.266 30.576C239.999 30.0853 239.866 29.5093 239.866 28.848V24.48H241.002V28.8C241.002 29.2587 241.082 29.6587 241.242 30C241.413 30.3413 241.653 30.608 241.962 30.8C242.271 30.992 242.629 31.088 243.034 31.088C243.663 31.088 244.159 30.88 244.522 30.464C244.895 30.048 245.082 29.4933 245.082 28.8V24.48H246.202V28.848C246.202 29.4987 246.069 30.0747 245.802 30.576C245.535 31.0773 245.162 31.4667 244.682 31.744C244.202 32.0213 243.653 32.16 243.034 32.16ZM253.764 32V27.584C253.764 26.9227 253.567 26.3893 253.172 25.984C252.788 25.568 252.276 25.36 251.636 25.36C251.199 25.36 250.815 25.456 250.484 25.648C250.154 25.84 249.892 26.1013 249.7 26.432C249.508 26.7627 249.412 27.1413 249.412 27.568L248.9 27.28C248.9 26.7147 249.034 26.208 249.3 25.76C249.567 25.312 249.924 24.96 250.372 24.704C250.831 24.448 251.354 24.32 251.94 24.32C252.516 24.32 253.028 24.4587 253.476 24.736C253.924 25.0133 254.271 25.3867 254.516 25.856C254.772 26.3253 254.9 26.8373 254.9 27.392V32H253.764ZM248.292 32V24.48H249.412V32H248.292ZM258.179 32.16C257.913 32.16 257.694 32.0693 257.523 31.888C257.353 31.7067 257.267 31.488 257.267 31.232C257.267 30.976 257.353 30.7627 257.523 30.592C257.694 30.4107 257.913 30.32 258.179 30.32C258.435 30.32 258.649 30.4107 258.819 30.592C258.99 30.7627 259.075 30.976 259.075 31.232C259.075 31.488 258.99 31.7067 258.819 31.888C258.649 32.0693 258.435 32.16 258.179 32.16Z" fill="white"/>
<path d="M274.392 32.16C273.773 32.16 273.229 32.0427 272.76 31.808C272.301 31.5627 271.907 31.232 271.576 30.816L272.408 30.048C272.643 30.368 272.92 30.6133 273.24 30.784C273.56 30.944 273.933 31.024 274.36 31.024C274.744 31.024 275.096 30.944 275.416 30.784C275.736 30.6133 275.992 30.352 276.184 30C276.376 29.648 276.472 29.2053 276.472 28.672V20.992H277.656V28.656C277.656 29.392 277.507 30.0213 277.208 30.544C276.92 31.0667 276.525 31.4667 276.024 31.744C275.533 32.0213 274.989 32.16 274.392 32.16ZM283.034 32.16C282.426 32.16 281.882 32.0213 281.402 31.744C280.922 31.456 280.543 31.0667 280.266 30.576C279.999 30.0853 279.866 29.5093 279.866 28.848V24.48H281.002V28.8C281.002 29.2587 281.082 29.6587 281.242 30C281.413 30.3413 281.653 30.608 281.962 30.8C282.271 30.992 282.629 31.088 283.034 31.088C283.663 31.088 284.159 30.88 284.522 30.464C284.895 30.048 285.082 29.4933 285.082 28.8V24.48H286.202V28.848C286.202 29.4987 286.069 30.0747 285.802 30.576C285.535 31.0773 285.162 31.4667 284.682 31.744C284.202 32.0213 283.653 32.16 283.034 32.16ZM288.292 32V20.672H289.412V32H288.292ZM292.867 32.16C292.6 32.16 292.382 32.0693 292.211 31.888C292.04 31.7067 291.955 31.488 291.955 31.232C291.955 30.976 292.04 30.7627 292.211 30.592C292.382 30.4107 292.6 30.32 292.867 30.32C293.123 30.32 293.336 30.4107 293.507 30.592C293.678 30.7627 293.763 30.976 293.763 31.232C293.763 31.488 293.678 31.7067 293.507 31.888C293.336 32.0693 293.123 32.16 292.867 32.16Z" fill="white"/>
<path d="M306.592 32L311.104 20.992H311.984L316.448 32H315.184L311.296 22.272H311.76L307.84 32H306.592ZM308.656 29.136V28.096H314.416V29.136H308.656ZM320.878 32.16C320.27 32.16 319.726 32.0213 319.246 31.744C318.766 31.456 318.387 31.0667 318.11 30.576C317.843 30.0853 317.71 29.5093 317.71 28.848V24.48H318.846V28.8C318.846 29.2587 318.926 29.6587 319.086 30C319.256 30.3413 319.496 30.608 319.806 30.8C320.115 30.992 320.472 31.088 320.878 31.088C321.507 31.088 322.003 30.88 322.366 30.464C322.739 30.048 322.926 29.4933 322.926 28.8V24.48H324.046V28.848C324.046 29.4987 323.912 30.0747 323.646 30.576C323.379 31.0773 323.006 31.4667 322.526 31.744C322.046 32.0213 321.496 32.16 320.878 32.16ZM329.24 35.328C328.483 35.328 327.805 35.184 327.208 34.896C326.621 34.6187 326.147 34.224 325.784 33.712L326.52 32.976C326.819 33.3813 327.197 33.696 327.656 33.92C328.115 34.144 328.653 34.256 329.272 34.256C330.125 34.256 330.803 34.0267 331.304 33.568C331.816 33.1093 332.072 32.4853 332.072 31.696V29.824L332.296 28.112L332.072 26.416V24.48H333.192V31.696C333.192 32.4213 333.027 33.056 332.696 33.6C332.365 34.144 331.901 34.5653 331.304 34.864C330.717 35.1733 330.029 35.328 329.24 35.328ZM329.32 31.92C328.627 31.92 328.003 31.7547 327.448 31.424C326.893 31.0933 326.456 30.64 326.136 30.064C325.816 29.488 325.656 28.8373 325.656 28.112C325.656 27.3867 325.811 26.7413 326.12 26.176C326.44 25.6 326.877 25.1467 327.432 24.816C327.987 24.4853 328.611 24.32 329.304 24.32C329.891 24.32 330.413 24.432 330.872 24.656C331.341 24.88 331.715 25.2 331.992 25.616C332.28 26.0213 332.456 26.5013 332.52 27.056V29.184C332.456 29.728 332.28 30.208 331.992 30.624C331.704 31.0293 331.331 31.3493 330.872 31.584C330.413 31.808 329.896 31.92 329.32 31.92ZM329.528 30.848C330.051 30.848 330.504 30.736 330.888 30.512C331.283 30.288 331.587 29.9733 331.8 29.568C332.024 29.152 332.136 28.6667 332.136 28.112C332.136 27.568 332.024 27.0933 331.8 26.688C331.587 26.2827 331.283 25.9627 330.888 25.728C330.493 25.4933 330.035 25.376 329.512 25.376C328.989 25.376 328.52 25.4933 328.104 25.728C327.699 25.9627 327.379 26.2827 327.144 26.688C326.92 27.0933 326.808 27.568 326.808 28.112C326.808 28.6453 326.925 29.12 327.16 29.536C327.395 29.952 327.715 30.2773 328.12 30.512C328.525 30.736 328.995 30.848 329.528 30.848ZM336.633 32.16C336.366 32.16 336.147 32.0693 335.977 31.888C335.806 31.7067 335.721 31.488 335.721 31.232C335.721 30.976 335.806 30.7627 335.977 30.592C336.147 30.4107 336.366 30.32 336.633 30.32C336.889 30.32 337.102 30.4107 337.273 30.592C337.443 30.7627 337.529 30.976 337.529 31.232C337.529 31.488 337.443 31.7067 337.273 31.888C337.102 32.0693 336.889 32.16 336.633 32.16Z" fill="white"/>
<path d="M353.448 32.16C352.595 32.16 351.859 32 351.24 31.68C350.621 31.3493 350.077 30.8907 349.608 30.304L350.424 29.504C350.797 30.0267 351.229 30.416 351.72 30.672C352.221 30.928 352.813 31.056 353.496 31.056C354.2 31.056 354.771 30.896 355.208 30.576C355.645 30.256 355.864 29.8133 355.864 29.248C355.864 28.8107 355.763 28.4533 355.56 28.176C355.357 27.888 355.091 27.6587 354.76 27.488C354.44 27.3067 354.083 27.1467 353.688 27.008C353.293 26.8693 352.899 26.7253 352.504 26.576C352.12 26.416 351.763 26.2187 351.432 25.984C351.101 25.7493 350.835 25.4507 350.632 25.088C350.44 24.7253 350.344 24.2613 350.344 23.696C350.344 23.0987 350.488 22.5867 350.776 22.16C351.064 21.7333 351.459 21.408 351.96 21.184C352.461 20.9493 353.032 20.832 353.672 20.832C354.387 20.832 355.021 20.9707 355.576 21.248C356.141 21.5253 356.611 21.8987 356.984 22.368L356.184 23.168C355.843 22.7627 355.469 22.4533 355.064 22.24C354.659 22.0267 354.184 21.92 353.64 21.92C353 21.92 352.488 22.0693 352.104 22.368C351.72 22.6667 351.528 23.0827 351.528 23.616C351.528 24.032 351.624 24.368 351.816 24.624C352.019 24.88 352.285 25.0933 352.616 25.264C352.947 25.4347 353.304 25.5893 353.688 25.728C354.083 25.856 354.477 26 354.872 26.16C355.267 26.32 355.624 26.5227 355.944 26.768C356.275 27.0133 356.541 27.328 356.744 27.712C356.947 28.0853 357.048 28.5653 357.048 29.152C357.048 30.1013 356.723 30.8427 356.072 31.376C355.432 31.8987 354.557 32.16 353.448 32.16ZM362.327 32.16C361.569 32.16 360.892 31.9893 360.295 31.648C359.697 31.3067 359.223 30.8373 358.871 30.24C358.529 29.6427 358.359 28.9707 358.359 28.224C358.359 27.488 358.529 26.8267 358.871 26.24C359.212 25.6427 359.676 25.1733 360.263 24.832C360.849 24.4907 361.505 24.32 362.231 24.32C362.913 24.32 363.516 24.4747 364.039 24.784C364.572 25.0933 364.988 25.5253 365.287 26.08C365.596 26.624 365.751 27.2533 365.751 27.968C365.751 28.0533 365.745 28.1547 365.735 28.272C365.724 28.3787 365.703 28.5067 365.671 28.656H359.159V27.696H365.063L364.663 28.048C364.673 27.4933 364.577 27.0187 364.375 26.624C364.183 26.2187 363.9 25.9093 363.527 25.696C363.164 25.472 362.721 25.36 362.199 25.36C361.655 25.36 361.18 25.4773 360.775 25.712C360.369 25.9467 360.049 26.2773 359.815 26.704C359.591 27.12 359.479 27.616 359.479 28.192C359.479 28.768 359.596 29.2747 359.831 29.712C360.076 30.1493 360.412 30.4907 360.839 30.736C361.276 30.9813 361.777 31.104 362.343 31.104C362.801 31.104 363.223 31.024 363.607 30.864C363.991 30.6933 364.316 30.4427 364.583 30.112L365.303 30.848C364.951 31.264 364.513 31.5893 363.991 31.824C363.479 32.048 362.924 32.16 362.327 32.16ZM371.352 32.16C370.776 32.16 370.259 32.0427 369.8 31.808C369.341 31.5733 368.963 31.2533 368.664 30.848C368.376 30.432 368.2 29.952 368.136 29.408V27.056C368.2 26.5013 368.381 26.0213 368.68 25.616C368.979 25.2 369.357 24.88 369.816 24.656C370.285 24.432 370.797 24.32 371.352 24.32C372.045 24.32 372.669 24.496 373.224 24.848C373.779 25.1893 374.216 25.6587 374.536 26.256C374.867 26.8427 375.032 27.5093 375.032 28.256C375.032 28.992 374.872 29.6533 374.552 30.24C374.232 30.8267 373.789 31.296 373.224 31.648C372.669 31.9893 372.045 32.16 371.352 32.16ZM367.464 35.168V24.48H368.584V26.4L368.36 28.224L368.584 30.064V35.168H367.464ZM371.16 31.088C371.693 31.088 372.163 30.9707 372.568 30.736C372.973 30.4907 373.288 30.1547 373.512 29.728C373.747 29.2907 373.864 28.7947 373.864 28.24C373.864 27.6747 373.747 27.1787 373.512 26.752C373.288 26.3253 372.973 25.9893 372.568 25.744C372.163 25.4987 371.699 25.376 371.176 25.376C370.653 25.376 370.189 25.4987 369.784 25.744C369.389 25.9893 369.08 26.3253 368.856 26.752C368.632 27.1787 368.52 27.6747 368.52 28.24C368.52 28.7947 368.632 29.2907 368.856 29.728C369.08 30.1547 369.389 30.4907 369.784 30.736C370.179 30.9707 370.637 31.088 371.16 31.088ZM377.648 32.16C377.381 32.16 377.163 32.0693 376.992 31.888C376.821 31.7067 376.736 31.488 376.736 31.232C376.736 30.976 376.821 30.7627 376.992 30.592C377.163 30.4107 377.381 30.32 377.648 30.32C377.904 30.32 378.117 30.4107 378.288 30.592C378.459 30.7627 378.544 30.976 378.544 31.232C378.544 31.488 378.459 31.7067 378.288 31.888C378.117 32.0693 377.904 32.16 377.648 32.16Z" fill="white"/>
<path d="M396.368 32.16C395.589 32.16 394.864 32.016 394.192 31.728C393.531 31.4293 392.949 31.024 392.448 30.512C391.947 29.9893 391.552 29.3867 391.264 28.704C390.987 28.0107 390.848 27.2693 390.848 26.48C390.848 25.68 390.987 24.9387 391.264 24.256C391.541 23.5733 391.931 22.976 392.432 22.464C392.933 21.952 393.515 21.552 394.176 21.264C394.837 20.976 395.557 20.832 396.336 20.832C397.115 20.832 397.835 20.976 398.496 21.264C399.168 21.552 399.755 21.952 400.256 22.464C400.757 22.976 401.147 23.5787 401.424 24.272C401.701 24.9547 401.84 25.696 401.84 26.496C401.84 27.2853 401.701 28.0267 401.424 28.72C401.147 29.4027 400.757 30 400.256 30.512C399.765 31.024 399.189 31.4293 398.528 31.728C397.867 32.016 397.147 32.16 396.368 32.16ZM396.336 31.024C397.168 31.024 397.904 30.8267 398.544 30.432C399.195 30.0373 399.701 29.4987 400.064 28.816C400.437 28.1333 400.624 27.3547 400.624 26.48C400.624 25.8293 400.517 25.232 400.304 24.688C400.091 24.1333 399.792 23.6533 399.408 23.248C399.024 22.832 398.571 22.512 398.048 22.288C397.536 22.064 396.965 21.952 396.336 21.952C395.515 21.952 394.779 22.1493 394.128 22.544C393.488 22.928 392.981 23.4613 392.608 24.144C392.245 24.8267 392.064 25.6053 392.064 26.48C392.064 27.1307 392.171 27.7333 392.384 28.288C392.597 28.8427 392.896 29.328 393.28 29.744C393.664 30.1493 394.117 30.464 394.64 30.688C395.163 30.912 395.728 31.024 396.336 31.024ZM407.263 32.16C406.527 32.16 405.86 31.9893 405.263 31.648C404.676 31.296 404.207 30.8213 403.855 30.224C403.514 29.6267 403.343 28.96 403.343 28.224C403.343 27.488 403.514 26.8267 403.855 26.24C404.207 25.6427 404.676 25.1733 405.263 24.832C405.86 24.4907 406.527 24.32 407.263 24.32C407.828 24.32 408.356 24.4267 408.847 24.64C409.338 24.8533 409.754 25.152 410.095 25.536L409.359 26.288C409.103 26 408.794 25.7813 408.431 25.632C408.068 25.472 407.679 25.392 407.263 25.392C406.73 25.392 406.255 25.5147 405.839 25.76C405.423 26.0053 405.098 26.3413 404.863 26.768C404.628 27.184 404.511 27.6693 404.511 28.224C404.511 28.768 404.628 29.2587 404.863 29.696C405.098 30.1227 405.423 30.4587 405.839 30.704C406.255 30.9493 406.73 31.072 407.263 31.072C407.69 31.072 408.084 30.9973 408.447 30.848C408.81 30.688 409.119 30.464 409.375 30.176L410.127 30.928C409.775 31.3227 409.348 31.6267 408.847 31.84C408.356 32.0533 407.828 32.16 407.263 32.16ZM412.804 32V21.312H413.924V32H412.804ZM410.9 25.488V24.48H415.812V25.488H410.9ZM417.992 32.16C417.725 32.16 417.507 32.0693 417.336 31.888C417.165 31.7067 417.08 31.488 417.08 31.232C417.08 30.976 417.165 30.7627 417.336 30.592C417.507 30.4107 417.725 30.32 417.992 30.32C418.248 30.32 418.461 30.4107 418.632 30.592C418.803 30.7627 418.888 30.976 418.888 31.232C418.888 31.488 418.803 31.7067 418.632 31.888C418.461 32.0693 418.248 32.16 417.992 32.16Z" fill="white"/>
<path d="M432.408 32V20.992H433.24L433.576 22.384V32H432.408ZM440.024 32L433.064 22.56L433.24 20.992L440.184 30.432L440.024 32ZM440.024 32L439.672 30.672V20.992H440.856V32H440.024ZM446.794 32.16C446.069 32.16 445.407 31.984 444.81 31.632C444.223 31.28 443.754 30.8053 443.402 30.208C443.061 29.6107 442.89 28.944 442.89 28.208C442.89 27.4827 443.061 26.8267 443.402 26.24C443.754 25.6533 444.223 25.1893 444.81 24.848C445.407 24.496 446.069 24.32 446.794 24.32C447.53 24.32 448.191 24.4907 448.778 24.832C449.365 25.1733 449.829 25.6427 450.17 26.24C450.522 26.8267 450.698 27.4827 450.698 28.208C450.698 28.9547 450.522 29.6267 450.17 30.224C449.829 30.8107 449.365 31.28 448.778 31.632C448.191 31.984 447.53 32.16 446.794 32.16ZM446.794 31.072C447.327 31.072 447.797 30.9493 448.202 30.704C448.618 30.4587 448.943 30.1173 449.178 29.68C449.423 29.2427 449.546 28.752 449.546 28.208C449.546 27.664 449.423 27.184 449.178 26.768C448.943 26.3413 448.618 26.0053 448.202 25.76C447.797 25.5147 447.327 25.392 446.794 25.392C446.271 25.392 445.802 25.5147 445.386 25.76C444.97 26.0053 444.645 26.3413 444.41 26.768C444.175 27.184 444.058 27.664 444.058 28.208C444.058 28.7627 444.175 29.2587 444.41 29.696C444.645 30.1227 444.97 30.4587 445.386 30.704C445.802 30.9493 446.271 31.072 446.794 31.072ZM454.776 32L451.304 24.48H452.552L455.48 31.056H454.776L457.72 24.48H458.936L455.432 32H454.776ZM460.679 32.16C460.413 32.16 460.194 32.0693 460.023 31.888C459.853 31.7067 459.767 31.488 459.767 31.232C459.767 30.976 459.853 30.7627 460.023 30.592C460.194 30.4107 460.413 30.32 460.679 30.32C460.935 30.32 461.149 30.4107 461.319 30.592C461.49 30.7627 461.575 30.976 461.575 31.232C461.575 31.488 461.49 31.7067 461.319 31.888C461.149 32.0693 460.935 32.16 460.679 32.16Z" fill="white"/>
<path d="M475.128 32V30.912H478.36C479.224 30.912 479.987 30.7253 480.648 30.352C481.309 29.968 481.827 29.4453 482.2 28.784C482.573 28.112 482.76 27.344 482.76 26.48C482.76 25.616 482.573 24.8533 482.2 24.192C481.827 23.5307 481.309 23.0133 480.648 22.64C479.987 22.256 479.224 22.064 478.36 22.064H475.16V20.992H478.392C479.192 20.992 479.928 21.1307 480.6 21.408C481.283 21.6747 481.875 22.0587 482.376 22.56C482.888 23.0507 483.283 23.632 483.56 24.304C483.837 24.9653 483.976 25.696 483.976 26.496C483.976 27.2747 483.837 28 483.56 28.672C483.283 29.344 482.893 29.9307 482.392 30.432C481.891 30.9227 481.299 31.3067 480.616 31.584C479.944 31.8613 479.213 32 478.424 32H475.128ZM474.408 32V20.992H475.576V32H474.408ZM489.436 32.16C488.679 32.16 488.001 31.9893 487.404 31.648C486.807 31.3067 486.332 30.8373 485.98 30.24C485.639 29.6427 485.468 28.9707 485.468 28.224C485.468 27.488 485.639 26.8267 485.98 26.24C486.321 25.6427 486.785 25.1733 487.372 24.832C487.959 24.4907 488.615 24.32 489.34 24.32C490.023 24.32 490.625 24.4747 491.148 24.784C491.681 25.0933 492.097 25.5253 492.396 26.08C492.705 26.624 492.86 27.2533 492.86 27.968C492.86 28.0533 492.855 28.1547 492.844 28.272C492.833 28.3787 492.812 28.5067 492.78 28.656H486.268V27.696H492.172L491.772 28.048C491.783 27.4933 491.687 27.0187 491.484 26.624C491.292 26.2187 491.009 25.9093 490.636 25.696C490.273 25.472 489.831 25.36 489.308 25.36C488.764 25.36 488.289 25.4773 487.884 25.712C487.479 25.9467 487.159 26.2773 486.924 26.704C486.7 27.12 486.588 27.616 486.588 28.192C486.588 28.768 486.705 29.2747 486.94 29.712C487.185 30.1493 487.521 30.4907 487.948 30.736C488.385 30.9813 488.887 31.104 489.452 31.104C489.911 31.104 490.332 31.024 490.716 30.864C491.1 30.6933 491.425 30.4427 491.692 30.112L492.412 30.848C492.06 31.264 491.623 31.5893 491.1 31.824C490.588 32.048 490.033 32.16 489.436 32.16ZM497.998 32.16C497.262 32.16 496.595 31.9893 495.998 31.648C495.411 31.296 494.942 30.8213 494.59 30.224C494.248 29.6267 494.078 28.96 494.078 28.224C494.078 27.488 494.248 26.8267 494.59 26.24C494.942 25.6427 495.411 25.1733 495.998 24.832C496.595 24.4907 497.262 24.32 497.998 24.32C498.563 24.32 499.091 24.4267 499.582 24.64C500.072 24.8533 500.488 25.152 500.83 25.536L500.094 26.288C499.838 26 499.528 25.7813 499.166 25.632C498.803 25.472 498.414 25.392 497.998 25.392C497.464 25.392 496.99 25.5147 496.574 25.76C496.158 26.0053 495.832 26.3413 495.598 26.768C495.363 27.184 495.246 27.6693 495.246 28.224C495.246 28.768 495.363 29.2587 495.598 29.696C495.832 30.1227 496.158 30.4587 496.574 30.704C496.99 30.9493 497.464 31.072 497.998 31.072C498.424 31.072 498.819 30.9973 499.182 30.848C499.544 30.688 499.854 30.464 500.11 30.176L500.862 30.928C500.51 31.3227 500.083 31.6267 499.582 31.84C499.091 32.0533 498.563 32.16 497.998 32.16ZM503.617 32.16C503.35 32.16 503.132 32.0693 502.961 31.888C502.79 31.7067 502.705 31.488 502.705 31.232C502.705 30.976 502.79 30.7627 502.961 30.592C503.132 30.4107 503.35 30.32 503.617 30.32C503.873 30.32 504.086 30.4107 504.257 30.592C504.428 30.7627 504.513 30.976 504.513 31.232C504.513 31.488 504.428 31.7067 504.257 31.888C504.086 32.0693 503.873 32.16 503.617 32.16Z" fill="white"/>
<path d="M30.948 76.16C30.0947 76.16 29.3587 76 28.74 75.68C28.1213 75.3493 27.5773 74.8907 27.108 74.304L27.924 73.504C28.2973 74.0267 28.7293 74.416 29.22 74.672C29.7213 74.928 30.3133 75.056 30.996 75.056C31.7 75.056 32.2707 74.896 32.708 74.576C33.1453 74.256 33.364 73.8133 33.364 73.248C33.364 72.8107 33.2627 72.4533 33.06 72.176C32.8573 71.888 32.5907 71.6587 32.26 71.488C31.94 71.3067 31.5827 71.1467 31.188 71.008C30.7933 70.8693 30.3987 70.7253 30.004 70.576C29.62 70.416 29.2627 70.2187 28.932 69.984C28.6013 69.7493 28.3347 69.4507 28.132 69.088C27.94 68.7253 27.844 68.2613 27.844 67.696C27.844 67.0987 27.988 66.5867 28.276 66.16C28.564 65.7333 28.9587 65.408 29.46 65.184C29.9613 64.9493 30.532 64.832 31.172 64.832C31.8867 64.832 32.5213 64.9707 33.076 65.248C33.6413 65.5253 34.1107 65.8987 34.484 66.368L33.684 67.168C33.3427 66.7627 32.9693 66.4533 32.564 66.24C32.1587 66.0267 31.684 65.92 31.14 65.92C30.5 65.92 29.988 66.0693 29.604 66.368C29.22 66.6667 29.028 67.0827 29.028 67.616C29.028 68.032 29.124 68.368 29.316 68.624C29.5187 68.88 29.7853 69.0933 30.116 69.264C30.4467 69.4347 30.804 69.5893 31.188 69.728C31.5827 69.856 31.9773 70 32.372 70.16C32.7667 70.32 33.124 70.5227 33.444 70.768C33.7747 71.0133 34.0413 71.328 34.244 71.712C34.4467 72.0853 34.548 72.5653 34.548 73.152C34.548 74.1013 34.2227 74.8427 33.572 75.376C32.932 75.8987 32.0573 76.16 30.948 76.16Z" fill="white"/>
<path d="M73.908 76V64.992H74.74L79.492 72.784H78.9L83.652 64.992H84.484V76H83.3V67.04L83.572 67.104L79.604 73.616H78.772L74.804 67.104L75.076 67.04V76H73.908Z" fill="white"/>
<path d="M127.964 76V65.296H129.148V76H127.964ZM124.092 66.064V64.992H133.02V66.064H124.092Z" fill="white"/>
<path d="M175.676 76L172.124 64.992H173.292L176.284 74.464H175.932L178.892 64.992H179.772L182.748 74.464H182.38L185.372 64.992H186.556L182.988 76H182.124L179.164 66.544H179.5L176.54 76H175.676Z" fill="white"/>
<path d="M228.964 76V65.296H230.148V76H228.964ZM225.092 66.064V64.992H234.02V66.064H225.092Z" fill="white"/>
<path d="M273.908 76V64.992H275.076V76H273.908ZM274.676 71.024V69.952H280.58V71.024H274.676ZM274.676 66.064V64.992H280.852V66.064H274.676Z" fill="white"/>
<path d="M323.948 76.16C323.095 76.16 322.359 76 321.74 75.68C321.121 75.3493 320.577 74.8907 320.108 74.304L320.924 73.504C321.297 74.0267 321.729 74.416 322.22 74.672C322.721 74.928 323.313 75.056 323.996 75.056C324.7 75.056 325.271 74.896 325.708 74.576C326.145 74.256 326.364 73.8133 326.364 73.248C326.364 72.8107 326.263 72.4533 326.06 72.176C325.857 71.888 325.591 71.6587 325.26 71.488C324.94 71.3067 324.583 71.1467 324.188 71.008C323.793 70.8693 323.399 70.7253 323.004 70.576C322.62 70.416 322.263 70.2187 321.932 69.984C321.601 69.7493 321.335 69.4507 321.132 69.088C320.94 68.7253 320.844 68.2613 320.844 67.696C320.844 67.0987 320.988 66.5867 321.276 66.16C321.564 65.7333 321.959 65.408 322.46 65.184C322.961 64.9493 323.532 64.832 324.172 64.832C324.887 64.832 325.521 64.9707 326.076 65.248C326.641 65.5253 327.111 65.8987 327.484 66.368L326.684 67.168C326.343 66.7627 325.969 66.4533 325.564 66.24C325.159 66.0267 324.684 65.92 324.14 65.92C323.5 65.92 322.988 66.0693 322.604 66.368C322.22 66.6667 322.028 67.0827 322.028 67.616C322.028 68.032 322.124 68.368 322.316 68.624C322.519 68.88 322.785 69.0933 323.116 69.264C323.447 69.4347 323.804 69.5893 324.188 69.728C324.583 69.856 324.977 70 325.372 70.16C325.767 70.32 326.124 70.5227 326.444 70.768C326.775 71.0133 327.041 71.328 327.244 71.712C327.447 72.0853 327.548 72.5653 327.548 73.152C327.548 74.1013 327.223 74.8427 326.572 75.376C325.932 75.8987 325.057 76.16 323.948 76.16Z" fill="white"/>
<rect x="8" y="96" width="45" height="36" rx="16" fill="#252B33" fill-opacity="0.64"/>
<path d="M25.28 120.16C24.448 120.16 23.6853 119.925 22.992 119.456C22.3093 118.987 21.7653 118.325 21.36 117.472C20.9547 116.608 20.752 115.595 20.752 114.432C20.752 113.269 20.9493 112.261 21.344 111.408C21.7493 110.555 22.2933 109.899 22.976 109.44C23.6587 108.971 24.4107 108.736 25.232 108.736C26.0747 108.736 26.8373 108.971 27.52 109.44C28.2027 109.899 28.7413 110.555 29.136 111.408C29.5413 112.261 29.744 113.275 29.744 114.448C29.744 115.611 29.5413 116.624 29.136 117.488C28.7413 118.341 28.2027 119.003 27.52 119.472C26.848 119.931 26.1013 120.16 25.28 120.16ZM25.248 118.736C25.8347 118.736 26.3467 118.576 26.784 118.256C27.232 117.925 27.584 117.44 27.84 116.8C28.096 116.16 28.224 115.371 28.224 114.432C28.224 113.493 28.096 112.709 27.84 112.08C27.584 111.44 27.232 110.96 26.784 110.64C26.336 110.309 25.8187 110.144 25.232 110.144C24.656 110.144 24.144 110.309 23.696 110.64C23.248 110.96 22.896 111.44 22.64 112.08C22.3947 112.709 22.272 113.493 22.272 114.432C22.272 115.371 22.3947 116.16 22.64 116.8C22.896 117.44 23.248 117.925 23.696 118.256C24.144 118.576 24.6613 118.736 25.248 118.736ZM35.78 120.16C34.948 120.16 34.1853 119.925 33.492 119.456C32.8093 118.987 32.2653 118.325 31.86 117.472C31.4547 116.608 31.252 115.595 31.252 114.432C31.252 113.269 31.4493 112.261 31.844 111.408C32.2493 110.555 32.7933 109.899 33.476 109.44C34.1587 108.971 34.9107 108.736 35.732 108.736C36.5747 108.736 37.3373 108.971 38.02 109.44C38.7027 109.899 39.2413 110.555 39.636 111.408C40.0413 112.261 40.244 113.275 40.244 114.448C40.244 115.611 40.0413 116.624 39.636 117.488C39.2413 118.341 38.7027 119.003 38.02 119.472C37.348 119.931 36.6013 120.16 35.78 120.16ZM35.748 118.736C36.3347 118.736 36.8467 118.576 37.284 118.256C37.732 117.925 38.084 117.44 38.34 116.8C38.596 116.16 38.724 115.371 38.724 114.432C38.724 113.493 38.596 112.709 38.34 112.08C38.084 111.44 37.732 110.96 37.284 110.64C36.836 110.309 36.3187 110.144 35.732 110.144C35.156 110.144 34.644 110.309 34.196 110.64C33.748 110.96 33.396 111.44 33.14 112.08C32.8947 112.709 32.772 113.493 32.772 114.432C32.772 115.371 32.8947 116.16 33.14 116.8C33.396 117.44 33.748 117.925 34.196 118.256C34.644 118.576 35.1613 118.736 35.748 118.736Z" fill="white"/>
<rect x="57" y="96" width="45" height="36" rx="16" fill="#252B33" fill-opacity="0.64"/>
<path d="M76.28 120.16C75.448 120.16 74.6853 119.925 73.992 119.456C73.3093 118.987 72.7653 118.325 72.36 117.472C71.9547 116.608 71.752 115.595 71.752 114.432C71.752 113.269 71.9493 112.261 72.344 111.408C72.7493 110.555 73.2933 109.899 73.976 109.44C74.6587 108.971 75.4107 108.736 76.232 108.736C77.0747 108.736 77.8373 108.971 78.52 109.44C79.2027 109.899 79.7413 110.555 80.136 111.408C80.5413 112.261 80.744 113.275 80.744 114.448C80.744 115.611 80.5413 116.624 80.136 117.488C79.7413 118.341 79.2027 119.003 78.52 119.472C77.848 119.931 77.1013 120.16 76.28 120.16ZM76.248 118.736C76.8347 118.736 77.3467 118.576 77.784 118.256C78.232 117.925 78.584 117.44 78.84 116.8C79.096 116.16 79.224 115.371 79.224 114.432C79.224 113.493 79.096 112.709 78.84 112.08C78.584 111.44 78.232 110.96 77.784 110.64C77.336 110.309 76.8187 110.144 76.232 110.144C75.656 110.144 75.144 110.309 74.696 110.64C74.248 110.96 73.896 111.44 73.64 112.08C73.3947 112.709 73.272 113.493 73.272 114.432C73.272 115.371 73.3947 116.16 73.64 116.8C73.896 117.44 74.248 117.925 74.696 118.256C75.144 118.576 75.6613 118.736 76.248 118.736ZM84.268 120V108.896H85.756V120H84.268ZM81.996 110.24V108.896H85.596V110.24H81.996Z" fill="white"/>
<rect x="106" y="96" width="45" height="36" rx="16" fill="#252B33" fill-opacity="0.64"/>
<path d="M123.78 120.16C122.948 120.16 122.185 119.925 121.492 119.456C120.809 118.987 120.265 118.325 119.86 117.472C119.455 116.608 119.252 115.595 119.252 114.432C119.252 113.269 119.449 112.261 119.844 111.408C120.249 110.555 120.793 109.899 121.476 109.44C122.159 108.971 122.911 108.736 123.732 108.736C124.575 108.736 125.337 108.971 126.02 109.44C126.703 109.899 127.241 110.555 127.636 111.408C128.041 112.261 128.244 113.275 128.244 114.448C128.244 115.611 128.041 116.624 127.636 117.488C127.241 118.341 126.703 119.003 126.02 119.472C125.348 119.931 124.601 120.16 123.78 120.16ZM123.748 118.736C124.335 118.736 124.847 118.576 125.284 118.256C125.732 117.925 126.084 117.44 126.34 116.8C126.596 116.16 126.724 115.371 126.724 114.432C126.724 113.493 126.596 112.709 126.34 112.08C126.084 111.44 125.732 110.96 125.284 110.64C124.836 110.309 124.319 110.144 123.732 110.144C123.156 110.144 122.644 110.309 122.196 110.64C121.748 110.96 121.396 111.44 121.14 112.08C120.895 112.709 120.772 113.493 120.772 114.432C120.772 115.371 120.895 116.16 121.14 116.8C121.396 117.44 121.748 117.925 122.196 118.256C122.644 118.576 123.161 118.736 123.748 118.736ZM129.497 119.088L133.593 114.768C134.009 114.341 134.334 113.973 134.569 113.664C134.803 113.344 134.969 113.051 135.065 112.784C135.171 112.517 135.225 112.24 135.225 111.952C135.225 111.387 135.043 110.944 134.681 110.624C134.318 110.304 133.849 110.144 133.273 110.144C132.707 110.144 132.211 110.283 131.785 110.56C131.358 110.827 130.979 111.243 130.649 111.808L129.593 110.928C130.03 110.203 130.558 109.659 131.177 109.296C131.795 108.923 132.51 108.736 133.321 108.736C134.003 108.736 134.595 108.869 135.097 109.136C135.609 109.403 136.003 109.776 136.281 110.256C136.558 110.736 136.697 111.296 136.697 111.936C136.697 112.395 136.638 112.805 136.521 113.168C136.414 113.531 136.217 113.904 135.929 114.288C135.651 114.661 135.262 115.109 134.761 115.632L131.449 119.04L129.497 119.088ZM129.497 120V119.088L130.777 118.656H136.953V120H129.497Z" fill="white"/>
<rect x="155" y="96" width="45" height="36" rx="16" fill="#252B33" fill-opacity="0.64"/>
<path d="M172.78 120.16C171.948 120.16 171.185 119.925 170.492 119.456C169.809 118.987 169.265 118.325 168.86 117.472C168.455 116.608 168.252 115.595 168.252 114.432C168.252 113.269 168.449 112.261 168.844 111.408C169.249 110.555 169.793 109.899 170.476 109.44C171.159 108.971 171.911 108.736 172.732 108.736C173.575 108.736 174.337 108.971 175.02 109.44C175.703 109.899 176.241 110.555 176.636 111.408C177.041 112.261 177.244 113.275 177.244 114.448C177.244 115.611 177.041 116.624 176.636 117.488C176.241 118.341 175.703 119.003 175.02 119.472C174.348 119.931 173.601 120.16 172.78 120.16ZM172.748 118.736C173.335 118.736 173.847 118.576 174.284 118.256C174.732 117.925 175.084 117.44 175.34 116.8C175.596 116.16 175.724 115.371 175.724 114.432C175.724 113.493 175.596 112.709 175.34 112.08C175.084 111.44 174.732 110.96 174.284 110.64C173.836 110.309 173.319 110.144 172.732 110.144C172.156 110.144 171.644 110.309 171.196 110.64C170.748 110.96 170.396 111.44 170.14 112.08C169.895 112.709 169.772 113.493 169.772 114.432C169.772 115.371 169.895 116.16 170.14 116.8C170.396 117.44 170.748 117.925 171.196 118.256C171.644 118.576 172.161 118.736 172.748 118.736ZM181.952 120.16C181.227 120.16 180.565 120.027 179.968 119.76C179.381 119.483 178.885 119.083 178.48 118.56L179.504 117.536C179.749 117.909 180.085 118.208 180.512 118.432C180.939 118.645 181.413 118.752 181.936 118.752C182.427 118.752 182.848 118.661 183.2 118.48C183.563 118.288 183.845 118.021 184.048 117.68C184.261 117.339 184.368 116.944 184.368 116.496C184.368 116.037 184.261 115.643 184.048 115.312C183.845 114.971 183.557 114.709 183.184 114.528C182.811 114.347 182.368 114.256 181.856 114.256C181.664 114.256 181.472 114.272 181.28 114.304C181.088 114.325 180.901 114.363 180.72 114.416L181.36 113.552C181.563 113.456 181.781 113.381 182.016 113.328C182.251 113.275 182.485 113.248 182.72 113.248C183.317 113.248 183.851 113.387 184.32 113.664C184.8 113.941 185.179 114.331 185.456 114.832C185.744 115.333 185.888 115.915 185.888 116.576C185.888 117.28 185.717 117.904 185.376 118.448C185.045 118.981 184.587 119.403 184 119.712C183.413 120.011 182.731 120.16 181.952 120.16ZM180.72 114.416V113.504L183.968 109.808L185.76 109.792L182.416 113.584L180.72 114.416ZM179.008 110.24V108.896H185.76V109.792L184.448 110.24H179.008Z" fill="white"/>
<rect x="204" y="96" width="45" height="36" rx="16" fill="#252B33" fill-opacity="0.64"/>
<path d="M221.28 120.16C220.448 120.16 219.685 119.925 218.992 119.456C218.309 118.987 217.765 118.325 217.36 117.472C216.955 116.608 216.752 115.595 216.752 114.432C216.752 113.269 216.949 112.261 217.344 111.408C217.749 110.555 218.293 109.899 218.976 109.44C219.659 108.971 220.411 108.736 221.232 108.736C222.075 108.736 222.837 108.971 223.52 109.44C224.203 109.899 224.741 110.555 225.136 111.408C225.541 112.261 225.744 113.275 225.744 114.448C225.744 115.611 225.541 116.624 225.136 117.488C224.741 118.341 224.203 119.003 223.52 119.472C222.848 119.931 222.101 120.16 221.28 120.16ZM221.248 118.736C221.835 118.736 222.347 118.576 222.784 118.256C223.232 117.925 223.584 117.44 223.84 116.8C224.096 116.16 224.224 115.371 224.224 114.432C224.224 113.493 224.096 112.709 223.84 112.08C223.584 111.44 223.232 110.96 222.784 110.64C222.336 110.309 221.819 110.144 221.232 110.144C220.656 110.144 220.144 110.309 219.696 110.64C219.248 110.96 218.896 111.44 218.64 112.08C218.395 112.709 218.272 113.493 218.272 114.432C218.272 115.371 218.395 116.16 218.64 116.8C218.896 117.44 219.248 117.925 219.696 118.256C220.144 118.576 220.661 118.736 221.248 118.736ZM227.028 116.176L231.076 108.896H232.772L228.644 116.176H227.028ZM227.028 117.104V116.176L227.668 115.76H235.54V117.104H227.028ZM232.452 120V112.656H233.94V120H232.452Z" fill="white"/>
<rect x="253" y="96" width="45" height="36" rx="16" fill="#252B33" fill-opacity="0.64"/>
<path d="M270.78 120.16C269.948 120.16 269.185 119.925 268.492 119.456C267.809 118.987 267.265 118.325 266.86 117.472C266.455 116.608 266.252 115.595 266.252 114.432C266.252 113.269 266.449 112.261 266.844 111.408C267.249 110.555 267.793 109.899 268.476 109.44C269.159 108.971 269.911 108.736 270.732 108.736C271.575 108.736 272.337 108.971 273.02 109.44C273.703 109.899 274.241 110.555 274.636 111.408C275.041 112.261 275.244 113.275 275.244 114.448C275.244 115.611 275.041 116.624 274.636 117.488C274.241 118.341 273.703 119.003 273.02 119.472C272.348 119.931 271.601 120.16 270.78 120.16ZM270.748 118.736C271.335 118.736 271.847 118.576 272.284 118.256C272.732 117.925 273.084 117.44 273.34 116.8C273.596 116.16 273.724 115.371 273.724 114.432C273.724 113.493 273.596 112.709 273.34 112.08C273.084 111.44 272.732 110.96 272.284 110.64C271.836 110.309 271.319 110.144 270.732 110.144C270.156 110.144 269.644 110.309 269.196 110.64C268.748 110.96 268.396 111.44 268.14 112.08C267.895 112.709 267.772 113.493 267.772 114.432C267.772 115.371 267.895 116.16 268.14 116.8C268.396 117.44 268.748 117.925 269.196 118.256C269.644 118.576 270.161 118.736 270.748 118.736ZM279.968 120.16C279.211 120.16 278.533 120.027 277.936 119.76C277.349 119.483 276.853 119.083 276.448 118.56L277.472 117.536C277.717 117.909 278.053 118.208 278.48 118.432C278.917 118.645 279.403 118.752 279.936 118.752C280.437 118.752 280.875 118.656 281.248 118.464C281.632 118.272 281.931 118.005 282.144 117.664C282.368 117.312 282.48 116.896 282.48 116.416C282.48 115.925 282.373 115.509 282.16 115.168C281.947 114.827 281.659 114.571 281.296 114.4C280.944 114.219 280.555 114.128 280.128 114.128C279.691 114.128 279.291 114.181 278.928 114.288C278.576 114.395 278.24 114.576 277.92 114.832L277.936 113.872C278.117 113.648 278.325 113.467 278.56 113.328C278.795 113.189 279.061 113.083 279.36 113.008C279.659 112.933 280.005 112.896 280.4 112.896C281.168 112.896 281.819 113.056 282.352 113.376C282.885 113.696 283.291 114.128 283.568 114.672C283.856 115.216 284 115.824 284 116.496C284 117.2 283.824 117.829 283.472 118.384C283.131 118.939 282.656 119.376 282.048 119.696C281.44 120.005 280.747 120.16 279.968 120.16ZM277.92 114.832L277.104 114.016L277.6 108.896H278.976L278.416 114.16L277.92 114.832ZM277.904 110.24L277.6 108.896H283.44V110.24H277.904Z" fill="white"/>
<rect x="302" y="96" width="45" height="36" rx="16" fill="#252B33" fill-opacity="0.64"/>
<path d="M319.78 120.16C318.948 120.16 318.185 119.925 317.492 119.456C316.809 118.987 316.265 118.325 315.86 117.472C315.455 116.608 315.252 115.595 315.252 114.432C315.252 113.269 315.449 112.261 315.844 111.408C316.249 110.555 316.793 109.899 317.476 109.44C318.159 108.971 318.911 108.736 319.732 108.736C320.575 108.736 321.337 108.971 322.02 109.44C322.703 109.899 323.241 110.555 323.636 111.408C324.041 112.261 324.244 113.275 324.244 114.448C324.244 115.611 324.041 116.624 323.636 117.488C323.241 118.341 322.703 119.003 322.02 119.472C321.348 119.931 320.601 120.16 319.78 120.16ZM319.748 118.736C320.335 118.736 320.847 118.576 321.284 118.256C321.732 117.925 322.084 117.44 322.34 116.8C322.596 116.16 322.724 115.371 322.724 114.432C322.724 113.493 322.596 112.709 322.34 112.08C322.084 111.44 321.732 110.96 321.284 110.64C320.836 110.309 320.319 110.144 319.732 110.144C319.156 110.144 318.644 110.309 318.196 110.64C317.748 110.96 317.396 111.44 317.14 112.08C316.895 112.709 316.772 113.493 316.772 114.432C316.772 115.371 316.895 116.16 317.14 116.8C317.396 117.44 317.748 117.925 318.196 118.256C318.644 118.576 319.161 118.736 319.748 118.736ZM329.512 120.16C328.776 120.16 328.115 119.989 327.528 119.648C326.952 119.307 326.493 118.848 326.152 118.272C325.811 117.696 325.64 117.056 325.64 116.352C325.64 115.371 325.981 114.395 326.664 113.424L329.928 108.896H331.672L328.328 113.456L327.784 113.744C327.912 113.52 328.067 113.333 328.248 113.184C328.429 113.024 328.653 112.901 328.92 112.816C329.187 112.731 329.501 112.688 329.864 112.688C330.515 112.688 331.101 112.843 331.624 113.152C332.157 113.461 332.584 113.888 332.904 114.432C333.235 114.965 333.4 115.589 333.4 116.304C333.4 117.008 333.224 117.653 332.872 118.24C332.531 118.827 332.061 119.296 331.464 119.648C330.877 119.989 330.227 120.16 329.512 120.16ZM329.512 118.752C329.96 118.752 330.36 118.645 330.712 118.432C331.075 118.208 331.357 117.915 331.56 117.552C331.773 117.179 331.88 116.763 331.88 116.304C331.88 115.845 331.773 115.435 331.56 115.072C331.357 114.699 331.075 114.405 330.712 114.192C330.36 113.979 329.96 113.872 329.512 113.872C329.064 113.872 328.659 113.979 328.296 114.192C327.944 114.405 327.661 114.699 327.448 115.072C327.245 115.435 327.144 115.845 327.144 116.304C327.144 116.763 327.245 117.179 327.448 117.552C327.661 117.925 327.944 118.219 328.296 118.432C328.659 118.645 329.064 118.752 329.512 118.752Z" fill="white"/>
<rect x="8" y="136" width="45" height="36" rx="16" fill="#252B33" fill-opacity="0.64"/>
<path d="M26.28 160.16C25.448 160.16 24.6853 159.925 23.992 159.456C23.3093 158.987 22.7653 158.325 22.36 157.472C21.9547 156.608 21.752 155.595 21.752 154.432C21.752 153.269 21.9493 152.261 22.344 151.408C22.7493 150.555 23.2933 149.899 23.976 149.44C24.6587 148.971 25.4107 148.736 26.232 148.736C27.0747 148.736 27.8373 148.971 28.52 149.44C29.2027 149.899 29.7413 150.555 30.136 151.408C30.5413 152.261 30.744 153.275 30.744 154.448C30.744 155.611 30.5413 156.624 30.136 157.488C29.7413 158.341 29.2027 159.003 28.52 159.472C27.848 159.931 27.1013 160.16 26.28 160.16ZM26.248 158.736C26.8347 158.736 27.3467 158.576 27.784 158.256C28.232 157.925 28.584 157.44 28.84 156.8C29.096 156.16 29.224 155.371 29.224 154.432C29.224 153.493 29.096 152.709 28.84 152.08C28.584 151.44 28.232 150.96 27.784 150.64C27.336 150.309 26.8187 150.144 26.232 150.144C25.656 150.144 25.144 150.309 24.696 150.64C24.248 150.96 23.896 151.44 23.64 152.08C23.3947 152.709 23.272 153.493 23.272 154.432C23.272 155.371 23.3947 156.16 23.64 156.8C23.896 157.44 24.248 157.925 24.696 158.256C25.144 158.576 25.6613 158.736 26.248 158.736ZM33.1306 160L37.2906 149.776L38.7786 149.824L34.7146 160H33.1306ZM31.3866 150.24V148.896H38.7786V149.824L38.1226 150.24H31.3866Z" fill="white"/>
<rect x="57" y="136" width="45" height="36" rx="16" fill="#252B33" fill-opacity="0.64"/>
<path d="M74.78 160.16C73.948 160.16 73.1853 159.925 72.492 159.456C71.8093 158.987 71.2653 158.325 70.86 157.472C70.4547 156.608 70.252 155.595 70.252 154.432C70.252 153.269 70.4493 152.261 70.844 151.408C71.2493 150.555 71.7933 149.899 72.476 149.44C73.1587 148.971 73.9107 148.736 74.732 148.736C75.5747 148.736 76.3373 148.971 77.02 149.44C77.7027 149.899 78.2413 150.555 78.636 151.408C79.0413 152.261 79.244 153.275 79.244 154.448C79.244 155.611 79.0413 156.624 78.636 157.488C78.2413 158.341 77.7027 159.003 77.02 159.472C76.348 159.931 75.6013 160.16 74.78 160.16ZM74.748 158.736C75.3347 158.736 75.8467 158.576 76.284 158.256C76.732 157.925 77.084 157.44 77.34 156.8C77.596 156.16 77.724 155.371 77.724 154.432C77.724 153.493 77.596 152.709 77.34 152.08C77.084 151.44 76.732 150.96 76.284 150.64C75.836 150.309 75.3187 150.144 74.732 150.144C74.156 150.144 73.644 150.309 73.196 150.64C72.748 150.96 72.396 151.44 72.14 152.08C71.8947 152.709 71.772 153.493 71.772 154.432C71.772 155.371 71.8947 156.16 72.14 156.8C72.396 157.44 72.748 157.925 73.196 158.256C73.644 158.576 74.1613 158.736 74.748 158.736ZM84.4 160.16C83.664 160.16 83.0133 160.021 82.448 159.744C81.8933 159.467 81.4613 159.083 81.152 158.592C80.8427 158.101 80.688 157.547 80.688 156.928C80.688 156.427 80.784 155.968 80.976 155.552C81.168 155.136 81.4507 154.784 81.824 154.496C82.1973 154.197 82.6347 153.984 83.136 153.856L83.184 154.288C82.7573 154.171 82.3947 153.984 82.096 153.728C81.7973 153.461 81.568 153.152 81.408 152.8C81.2587 152.437 81.184 152.053 81.184 151.648C81.184 151.072 81.3227 150.565 81.6 150.128C81.8773 149.691 82.256 149.349 82.736 149.104C83.2267 148.848 83.7813 148.72 84.4 148.72C85.0293 148.72 85.584 148.848 86.064 149.104C86.544 149.349 86.9227 149.691 87.2 150.128C87.4773 150.565 87.616 151.072 87.616 151.648C87.616 152.053 87.536 152.437 87.376 152.8C87.2267 153.152 87.0027 153.461 86.704 153.728C86.416 153.984 86.0587 154.171 85.632 154.288L85.664 153.856C86.176 153.984 86.6133 154.197 86.976 154.496C87.3493 154.784 87.632 155.136 87.824 155.552C88.0267 155.968 88.128 156.427 88.128 156.928C88.128 157.547 87.9733 158.101 87.664 158.592C87.3547 159.083 86.9173 159.467 86.352 159.744C85.7973 160.021 85.1467 160.16 84.4 160.16ZM84.4 158.8C84.848 158.8 85.2373 158.715 85.568 158.544C85.9093 158.363 86.176 158.117 86.368 157.808C86.5707 157.499 86.672 157.141 86.672 156.736C86.672 156.341 86.5707 155.989 86.368 155.68C86.176 155.371 85.9093 155.131 85.568 154.96C85.2373 154.779 84.848 154.688 84.4 154.688C83.9627 154.688 83.5733 154.779 83.232 154.96C82.8907 155.131 82.6187 155.371 82.416 155.68C82.224 155.989 82.128 156.341 82.128 156.736C82.128 157.141 82.224 157.499 82.416 157.808C82.6187 158.117 82.8907 158.363 83.232 158.544C83.5733 158.715 83.9627 158.8 84.4 158.8ZM84.4 153.52C84.9333 153.52 85.3707 153.355 85.712 153.024C86.0533 152.693 86.224 152.267 86.224 151.744C86.224 151.232 86.0533 150.816 85.712 150.496C85.3707 150.165 84.9333 150 84.4 150C83.8773 150 83.4453 150.165 83.104 150.496C82.7627 150.816 82.592 151.232 82.592 151.744C82.592 152.267 82.7627 152.693 83.104 153.024C83.4453 153.355 83.8773 153.52 84.4 153.52Z" fill="white"/>
<rect x="106" y="136" width="45" height="36" rx="16" fill="#252B33" fill-opacity="0.64"/>
<path d="M123.78 160.16C122.948 160.16 122.185 159.925 121.492 159.456C120.809 158.987 120.265 158.325 119.86 157.472C119.455 156.608 119.252 155.595 119.252 154.432C119.252 153.269 119.449 152.261 119.844 151.408C120.249 150.555 120.793 149.899 121.476 149.44C122.159 148.971 122.911 148.736 123.732 148.736C124.575 148.736 125.337 148.971 126.02 149.44C126.703 149.899 127.241 150.555 127.636 151.408C128.041 152.261 128.244 153.275 128.244 154.448C128.244 155.611 128.041 156.624 127.636 157.488C127.241 158.341 126.703 159.003 126.02 159.472C125.348 159.931 124.601 160.16 123.78 160.16ZM123.748 158.736C124.335 158.736 124.847 158.576 125.284 158.256C125.732 157.925 126.084 157.44 126.34 156.8C126.596 156.16 126.724 155.371 126.724 154.432C126.724 153.493 126.596 152.709 126.34 152.08C126.084 151.44 125.732 150.96 125.284 150.64C124.836 150.309 124.319 150.144 123.732 150.144C123.156 150.144 122.644 150.309 122.196 150.64C121.748 150.96 121.396 151.44 121.14 152.08C120.895 152.709 120.772 153.493 120.772 154.432C120.772 155.371 120.895 156.16 121.14 156.8C121.396 157.44 121.748 157.925 122.196 158.256C122.644 158.576 123.161 158.736 123.748 158.736ZM131.352 160L134.696 155.44L135.24 155.152C135.112 155.365 134.957 155.552 134.776 155.712C134.595 155.872 134.371 155.995 134.104 156.08C133.848 156.165 133.533 156.208 133.16 156.208C132.52 156.208 131.928 156.053 131.384 155.744C130.851 155.435 130.424 155.008 130.104 154.464C129.784 153.909 129.624 153.285 129.624 152.592C129.624 151.877 129.8 151.232 130.152 150.656C130.504 150.069 130.973 149.605 131.56 149.264C132.147 148.912 132.797 148.736 133.512 148.736C134.237 148.736 134.893 148.907 135.48 149.248C136.067 149.589 136.531 150.048 136.872 150.624C137.213 151.189 137.384 151.829 137.384 152.544C137.384 153.525 137.043 154.501 136.36 155.472L133.096 160H131.352ZM133.512 155.024C133.96 155.024 134.36 154.917 134.712 154.704C135.075 154.48 135.357 154.187 135.56 153.824C135.773 153.451 135.88 153.04 135.88 152.592C135.88 152.123 135.773 151.707 135.56 151.344C135.357 150.971 135.075 150.677 134.712 150.464C134.36 150.251 133.96 150.144 133.512 150.144C133.064 150.144 132.659 150.251 132.296 150.464C131.944 150.677 131.661 150.971 131.448 151.344C131.235 151.707 131.128 152.123 131.128 152.592C131.128 153.051 131.235 153.461 131.448 153.824C131.661 154.187 131.949 154.48 132.312 154.704C132.675 154.917 133.075 155.024 133.512 155.024Z" fill="white"/>
<rect x="155" y="136" width="45" height="36" rx="16" fill="#252B33" fill-opacity="0.64"/>
<path d="M171.768 160V148.896H173.256V160H171.768ZM169.496 150.24V148.896H173.096V150.24H169.496ZM179.827 160.16C178.995 160.16 178.232 159.925 177.539 159.456C176.856 158.987 176.312 158.325 175.907 157.472C175.502 156.608 175.299 155.595 175.299 154.432C175.299 153.269 175.496 152.261 175.891 151.408C176.296 150.555 176.84 149.899 177.523 149.44C178.206 148.971 178.958 148.736 179.779 148.736C180.622 148.736 181.384 148.971 182.067 149.44C182.75 149.899 183.288 150.555 183.683 151.408C184.088 152.261 184.291 153.275 184.291 154.448C184.291 155.611 184.088 156.624 183.683 157.488C183.288 158.341 182.75 159.003 182.067 159.472C181.395 159.931 180.648 160.16 179.827 160.16ZM179.795 158.736C180.382 158.736 180.894 158.576 181.331 158.256C181.779 157.925 182.131 157.44 182.387 156.8C182.643 156.16 182.771 155.371 182.771 154.432C182.771 153.493 182.643 152.709 182.387 152.08C182.131 151.44 181.779 150.96 181.331 150.64C180.883 150.309 180.366 150.144 179.779 150.144C179.203 150.144 178.691 150.309 178.243 150.64C177.795 150.96 177.443 151.44 177.187 152.08C176.942 152.709 176.819 153.493 176.819 154.432C176.819 155.371 176.942 156.16 177.187 156.8C177.443 157.44 177.795 157.925 178.243 158.256C178.691 158.576 179.208 158.736 179.795 158.736Z" fill="white"/>
<rect x="204" y="136" width="45" height="36" rx="16" fill="#252B33" fill-opacity="0.64"/>
<path d="M223.268 160V148.896H224.756V160H223.268ZM220.996 150.24V148.896H224.596V150.24H220.996ZM228.815 160V148.896H230.303V160H228.815ZM226.543 150.24V148.896H230.143V150.24H226.543Z" fill="white"/>
<rect x="253" y="136" width="45" height="36" rx="16" fill="#252B33" fill-opacity="0.64"/>
<path d="M270.768 160V148.896H272.256V160H270.768ZM268.496 150.24V148.896H272.096V150.24H268.496ZM274.075 159.088L278.171 154.768C278.587 154.341 278.912 153.973 279.147 153.664C279.382 153.344 279.547 153.051 279.643 152.784C279.75 152.517 279.803 152.24 279.803 151.952C279.803 151.387 279.622 150.944 279.259 150.624C278.896 150.304 278.427 150.144 277.851 150.144C277.286 150.144 276.79 150.283 276.363 150.56C275.936 150.827 275.558 151.243 275.227 151.808L274.171 150.928C274.608 150.203 275.136 149.659 275.755 149.296C276.374 148.923 277.088 148.736 277.899 148.736C278.582 148.736 279.174 148.869 279.675 149.136C280.187 149.403 280.582 149.776 280.859 150.256C281.136 150.736 281.275 151.296 281.275 151.936C281.275 152.395 281.216 152.805 281.099 153.168C280.992 153.531 280.795 153.904 280.507 154.288C280.23 154.661 279.84 155.109 279.339 155.632L276.027 159.04L274.075 159.088ZM274.075 160V159.088L275.355 158.656H281.531V160H274.075Z" fill="white"/>
<rect x="302" y="136" width="45" height="36" rx="16" fill="#252B33" fill-opacity="0.64"/>
<path d="M319.768 160V148.896H321.256V160H319.768ZM317.496 150.24V148.896H321.096V150.24H317.496ZM326.499 160.16C325.774 160.16 325.112 160.027 324.515 159.76C323.928 159.483 323.432 159.083 323.027 158.56L324.051 157.536C324.296 157.909 324.632 158.208 325.059 158.432C325.486 158.645 325.96 158.752 326.483 158.752C326.974 158.752 327.395 158.661 327.747 158.48C328.11 158.288 328.392 158.021 328.595 157.68C328.808 157.339 328.915 156.944 328.915 156.496C328.915 156.037 328.808 155.643 328.595 155.312C328.392 154.971 328.104 154.709 327.731 154.528C327.358 154.347 326.915 154.256 326.403 154.256C326.211 154.256 326.019 154.272 325.827 154.304C325.635 154.325 325.448 154.363 325.267 154.416L325.907 153.552C326.11 153.456 326.328 153.381 326.563 153.328C326.798 153.275 327.032 153.248 327.267 153.248C327.864 153.248 328.398 153.387 328.867 153.664C329.347 153.941 329.726 154.331 330.003 154.832C330.291 155.333 330.435 155.915 330.435 156.576C330.435 157.28 330.264 157.904 329.923 158.448C329.592 158.981 329.134 159.403 328.547 159.712C327.96 160.011 327.278 160.16 326.499 160.16ZM325.267 154.416V153.504L328.515 149.808L330.307 149.792L326.963 153.584L325.267 154.416ZM323.555 150.24V148.896H330.307V149.792L328.995 150.24H323.555Z" fill="white"/>
<rect x="8" y="176" width="45" height="36" rx="16" fill="#252B33" fill-opacity="0.64"/>
<path d="M25.268 200V188.896H26.756V200H25.268ZM22.996 190.24V188.896H26.596V190.24H22.996ZM28.5749 196.176L32.6229 188.896H34.3189L30.1909 196.176H28.5749ZM28.5749 197.104V196.176L29.2149 195.76H37.0869V197.104H28.5749ZM33.9989 200V192.656H35.4869V200H33.9989Z" fill="white"/>
<rect x="57" y="176" width="45" height="36" rx="16" fill="#252B33" fill-opacity="0.64"/>
<path d="M74.768 200V188.896H76.256V200H74.768ZM72.496 190.24V188.896H76.096V190.24H72.496ZM81.5149 200.16C80.7575 200.16 80.0802 200.027 79.4829 199.76C78.8962 199.483 78.4002 199.083 77.9949 198.56L79.0189 197.536C79.2642 197.909 79.6002 198.208 80.0269 198.432C80.4642 198.645 80.9495 198.752 81.4829 198.752C81.9842 198.752 82.4215 198.656 82.7949 198.464C83.1789 198.272 83.4775 198.005 83.6909 197.664C83.9149 197.312 84.0269 196.896 84.0269 196.416C84.0269 195.925 83.9202 195.509 83.7069 195.168C83.4935 194.827 83.2055 194.571 82.8429 194.4C82.4909 194.219 82.1015 194.128 81.6749 194.128C81.2375 194.128 80.8375 194.181 80.4749 194.288C80.1229 194.395 79.7869 194.576 79.4669 194.832L79.4829 193.872C79.6642 193.648 79.8722 193.467 80.1069 193.328C80.3415 193.189 80.6082 193.083 80.9069 193.008C81.2055 192.933 81.5522 192.896 81.9469 192.896C82.7149 192.896 83.3655 193.056 83.8989 193.376C84.4322 193.696 84.8375 194.128 85.1149 194.672C85.4029 195.216 85.5469 195.824 85.5469 196.496C85.5469 197.2 85.3709 197.829 85.0189 198.384C84.6775 198.939 84.2029 199.376 83.5949 199.696C82.9869 200.005 82.2935 200.16 81.5149 200.16ZM79.4669 194.832L78.6509 194.016L79.1469 188.896H80.5229L79.9629 194.16L79.4669 194.832ZM79.4509 190.24L79.1469 188.896H84.9869V190.24H79.4509Z" fill="white"/>
<rect x="106" y="176" width="45" height="36" rx="16" fill="#252B33" fill-opacity="0.64"/>
<path d="M123.768 200V188.896H125.256V200H123.768ZM121.496 190.24V188.896H125.096V190.24H121.496ZM131.059 200.16C130.323 200.16 129.662 199.989 129.075 199.648C128.499 199.307 128.04 198.848 127.699 198.272C127.358 197.696 127.187 197.056 127.187 196.352C127.187 195.371 127.528 194.395 128.211 193.424L131.475 188.896H133.219L129.875 193.456L129.331 193.744C129.459 193.52 129.614 193.333 129.795 193.184C129.976 193.024 130.2 192.901 130.467 192.816C130.734 192.731 131.048 192.688 131.411 192.688C132.062 192.688 132.648 192.843 133.171 193.152C133.704 193.461 134.131 193.888 134.451 194.432C134.782 194.965 134.947 195.589 134.947 196.304C134.947 197.008 134.771 197.653 134.419 198.24C134.078 198.827 133.608 199.296 133.011 199.648C132.424 199.989 131.774 200.16 131.059 200.16ZM131.059 198.752C131.507 198.752 131.907 198.645 132.259 198.432C132.622 198.208 132.904 197.915 133.107 197.552C133.32 197.179 133.427 196.763 133.427 196.304C133.427 195.845 133.32 195.435 133.107 195.072C132.904 194.699 132.622 194.405 132.259 194.192C131.907 193.979 131.507 193.872 131.059 193.872C130.611 193.872 130.206 193.979 129.843 194.192C129.491 194.405 129.208 194.699 128.995 195.072C128.792 195.435 128.691 195.845 128.691 196.304C128.691 196.763 128.792 197.179 128.995 197.552C129.208 197.925 129.491 198.219 129.843 198.432C130.206 198.645 130.611 198.752 131.059 198.752Z" fill="white"/>
<rect x="155" y="176" width="45" height="36" rx="16" fill="#252B33" fill-opacity="0.64"/>
<path d="M173.268 200V188.896H174.756V200H173.268ZM170.996 190.24V188.896H174.596V190.24H170.996ZM178.178 200L182.338 189.776L183.826 189.824L179.762 200H178.178ZM176.434 190.24V188.896H183.826V189.824L183.17 190.24H176.434Z" fill="white"/>
<rect x="204" y="176" width="45" height="36" rx="16" fill="#252B33" fill-opacity="0.64"/>
<path d="M221.768 200V188.896H223.256V200H221.768ZM219.496 190.24V188.896H223.096V190.24H219.496ZM228.947 200.16C228.211 200.16 227.56 200.021 226.995 199.744C226.44 199.467 226.008 199.083 225.699 198.592C225.39 198.101 225.235 197.547 225.235 196.928C225.235 196.427 225.331 195.968 225.523 195.552C225.715 195.136 225.998 194.784 226.371 194.496C226.744 194.197 227.182 193.984 227.683 193.856L227.731 194.288C227.304 194.171 226.942 193.984 226.643 193.728C226.344 193.461 226.115 193.152 225.955 192.8C225.806 192.437 225.731 192.053 225.731 191.648C225.731 191.072 225.87 190.565 226.147 190.128C226.424 189.691 226.803 189.349 227.283 189.104C227.774 188.848 228.328 188.72 228.947 188.72C229.576 188.72 230.131 188.848 230.611 189.104C231.091 189.349 231.47 189.691 231.747 190.128C232.024 190.565 232.163 191.072 232.163 191.648C232.163 192.053 232.083 192.437 231.923 192.8C231.774 193.152 231.55 193.461 231.251 193.728C230.963 193.984 230.606 194.171 230.179 194.288L230.211 193.856C230.723 193.984 231.16 194.197 231.523 194.496C231.896 194.784 232.179 195.136 232.371 195.552C232.574 195.968 232.675 196.427 232.675 196.928C232.675 197.547 232.52 198.101 232.211 198.592C231.902 199.083 231.464 199.467 230.899 199.744C230.344 200.021 229.694 200.16 228.947 200.16ZM228.947 198.8C229.395 198.8 229.784 198.715 230.115 198.544C230.456 198.363 230.723 198.117 230.915 197.808C231.118 197.499 231.219 197.141 231.219 196.736C231.219 196.341 231.118 195.989 230.915 195.68C230.723 195.371 230.456 195.131 230.115 194.96C229.784 194.779 229.395 194.688 228.947 194.688C228.51 194.688 228.12 194.779 227.779 194.96C227.438 195.131 227.166 195.371 226.963 195.68C226.771 195.989 226.675 196.341 226.675 196.736C226.675 197.141 226.771 197.499 226.963 197.808C227.166 198.117 227.438 198.363 227.779 198.544C228.12 198.715 228.51 198.8 228.947 198.8ZM228.947 193.52C229.48 193.52 229.918 193.355 230.259 193.024C230.6 192.693 230.771 192.267 230.771 191.744C230.771 191.232 230.6 190.816 230.259 190.496C229.918 190.165 229.48 190 228.947 190C228.424 190 227.992 190.165 227.651 190.496C227.31 190.816 227.139 191.232 227.139 191.744C227.139 192.267 227.31 192.693 227.651 193.024C227.992 193.355 228.424 193.52 228.947 193.52Z" fill="white"/>
<rect x="253" y="176" width="45" height="36" rx="16" fill="#252B33" fill-opacity="0.64"/>
<path d="M270.768 200V188.896H272.256V200H270.768ZM268.496 190.24V188.896H272.096V190.24H268.496ZM275.899 200L279.243 195.44L279.787 195.152C279.659 195.365 279.504 195.552 279.323 195.712C279.142 195.872 278.918 195.995 278.651 196.08C278.395 196.165 278.08 196.208 277.707 196.208C277.067 196.208 276.475 196.053 275.931 195.744C275.398 195.435 274.971 195.008 274.651 194.464C274.331 193.909 274.171 193.285 274.171 192.592C274.171 191.877 274.347 191.232 274.699 190.656C275.051 190.069 275.52 189.605 276.107 189.264C276.694 188.912 277.344 188.736 278.059 188.736C278.784 188.736 279.44 188.907 280.027 189.248C280.614 189.589 281.078 190.048 281.419 190.624C281.76 191.189 281.931 191.829 281.931 192.544C281.931 193.525 281.59 194.501 280.907 195.472L277.643 200H275.899ZM278.059 195.024C278.507 195.024 278.907 194.917 279.259 194.704C279.622 194.48 279.904 194.187 280.107 193.824C280.32 193.451 280.427 193.04 280.427 192.592C280.427 192.123 280.32 191.707 280.107 191.344C279.904 190.971 279.622 190.677 279.259 190.464C278.907 190.251 278.507 190.144 278.059 190.144C277.611 190.144 277.206 190.251 276.843 190.464C276.491 190.677 276.208 190.971 275.995 191.344C275.782 191.707 275.675 192.123 275.675 192.592C275.675 193.051 275.782 193.461 275.995 193.824C276.208 194.187 276.496 194.48 276.859 194.704C277.222 194.917 277.622 195.024 278.059 195.024Z" fill="white"/>
<rect x="302" y="176" width="45" height="36" rx="16" fill="#252B33" fill-opacity="0.64"/>
<path d="M315.028 199.088L319.124 194.768C319.54 194.341 319.865 193.973 320.1 193.664C320.335 193.344 320.5 193.051 320.596 192.784C320.703 192.517 320.756 192.24 320.756 191.952C320.756 191.387 320.575 190.944 320.212 190.624C319.849 190.304 319.38 190.144 318.804 190.144C318.239 190.144 317.743 190.283 317.316 190.56C316.889 190.827 316.511 191.243 316.18 191.808L315.124 190.928C315.561 190.203 316.089 189.659 316.708 189.296C317.327 188.923 318.041 188.736 318.852 188.736C319.535 188.736 320.127 188.869 320.628 189.136C321.14 189.403 321.535 189.776 321.812 190.256C322.089 190.736 322.228 191.296 322.228 191.936C322.228 192.395 322.169 192.805 322.052 193.168C321.945 193.531 321.748 193.904 321.46 194.288C321.183 194.661 320.793 195.109 320.292 195.632L316.98 199.04L315.028 199.088ZM315.028 200V199.088L316.308 198.656H322.484V200H315.028ZM328.436 200.16C327.604 200.16 326.842 199.925 326.148 199.456C325.466 198.987 324.922 198.325 324.516 197.472C324.111 196.608 323.908 195.595 323.908 194.432C323.908 193.269 324.106 192.261 324.5 191.408C324.906 190.555 325.45 189.899 326.132 189.44C326.815 188.971 327.567 188.736 328.388 188.736C329.231 188.736 329.994 188.971 330.676 189.44C331.359 189.899 331.898 190.555 332.292 191.408C332.698 192.261 332.9 193.275 332.9 194.448C332.9 195.611 332.698 196.624 332.292 197.488C331.898 198.341 331.359 199.003 330.676 199.472C330.004 199.931 329.258 200.16 328.436 200.16ZM328.404 198.736C328.991 198.736 329.503 198.576 329.94 198.256C330.388 197.925 330.74 197.44 330.996 196.8C331.252 196.16 331.38 195.371 331.38 194.432C331.38 193.493 331.252 192.709 330.996 192.08C330.74 191.44 330.388 190.96 329.94 190.64C329.492 190.309 328.975 190.144 328.388 190.144C327.812 190.144 327.3 190.309 326.852 190.64C326.404 190.96 326.052 191.44 325.796 192.08C325.551 192.709 325.428 193.493 325.428 194.432C325.428 195.371 325.551 196.16 325.796 196.8C326.052 197.44 326.404 197.925 326.852 198.256C327.3 198.576 327.818 198.736 328.404 198.736Z" fill="white"/>
<rect x="8" y="216" width="45" height="36" rx="16" fill="#252B33" fill-opacity="0.64"/>
<path d="M23.528 239.088L27.624 234.768C28.04 234.341 28.3653 233.973 28.6 233.664C28.8347 233.344 29 233.051 29.096 232.784C29.2027 232.517 29.256 232.24 29.256 231.952C29.256 231.387 29.0747 230.944 28.712 230.624C28.3493 230.304 27.88 230.144 27.304 230.144C26.7387 230.144 26.2427 230.283 25.816 230.56C25.3893 230.827 25.0107 231.243 24.68 231.808L23.624 230.928C24.0613 230.203 24.5893 229.659 25.208 229.296C25.8267 228.923 26.5413 228.736 27.352 228.736C28.0347 228.736 28.6267 228.869 29.128 229.136C29.64 229.403 30.0347 229.776 30.312 230.256C30.5893 230.736 30.728 231.296 30.728 231.936C30.728 232.395 30.6693 232.805 30.552 233.168C30.4453 233.531 30.248 233.904 29.96 234.288C29.6827 234.661 29.2933 235.109 28.792 235.632L25.48 239.04L23.528 239.088ZM23.528 240V239.088L24.808 238.656H30.984V240H23.528ZM34.4243 240V228.896H35.9123V240H34.4243ZM32.1523 230.24V228.896H35.7523V230.24H32.1523Z" fill="white"/>
<rect x="57" y="216" width="45" height="36" rx="16" fill="#252B33" fill-opacity="0.64"/>
<path d="M71.028 239.088L75.124 234.768C75.54 234.341 75.8653 233.973 76.1 233.664C76.3347 233.344 76.5 233.051 76.596 232.784C76.7027 232.517 76.756 232.24 76.756 231.952C76.756 231.387 76.5747 230.944 76.212 230.624C75.8493 230.304 75.38 230.144 74.804 230.144C74.2387 230.144 73.7427 230.283 73.316 230.56C72.8893 230.827 72.5107 231.243 72.18 231.808L71.124 230.928C71.5613 230.203 72.0893 229.659 72.708 229.296C73.3267 228.923 74.0413 228.736 74.852 228.736C75.5347 228.736 76.1267 228.869 76.628 229.136C77.14 229.403 77.5347 229.776 77.812 230.256C78.0893 230.736 78.228 231.296 78.228 231.936C78.228 232.395 78.1693 232.805 78.052 233.168C77.9453 233.531 77.748 233.904 77.46 234.288C77.1827 234.661 76.7933 235.109 76.292 235.632L72.98 239.04L71.028 239.088ZM71.028 240V239.088L72.308 238.656H78.484V240H71.028ZM79.6842 239.088L83.7803 234.768C84.1963 234.341 84.5216 233.973 84.7563 233.664C84.9909 233.344 85.1563 233.051 85.2523 232.784C85.3589 232.517 85.4123 232.24 85.4123 231.952C85.4123 231.387 85.2309 230.944 84.8683 230.624C84.5056 230.304 84.0363 230.144 83.4603 230.144C82.8949 230.144 82.3989 230.283 81.9723 230.56C81.5456 230.827 81.1669 231.243 80.8363 231.808L79.7803 230.928C80.2176 230.203 80.7456 229.659 81.3643 229.296C81.9829 228.923 82.6976 228.736 83.5083 228.736C84.1909 228.736 84.7829 228.869 85.2843 229.136C85.7963 229.403 86.1909 229.776 86.4683 230.256C86.7456 230.736 86.8843 231.296 86.8843 231.936C86.8843 232.395 86.8256 232.805 86.7083 233.168C86.6016 233.531 86.4043 233.904 86.1163 234.288C85.8389 234.661 85.4496 235.109 84.9483 235.632L81.6363 239.04L79.6842 239.088ZM79.6842 240V239.088L80.9643 238.656H87.1403V240H79.6842Z" fill="white"/>
<rect x="106" y="216" width="45" height="36" rx="16" fill="#252B33" fill-opacity="0.64"/>
<path d="M120.028 239.088L124.124 234.768C124.54 234.341 124.865 233.973 125.1 233.664C125.335 233.344 125.5 233.051 125.596 232.784C125.703 232.517 125.756 232.24 125.756 231.952C125.756 231.387 125.575 230.944 125.212 230.624C124.849 230.304 124.38 230.144 123.804 230.144C123.239 230.144 122.743 230.283 122.316 230.56C121.889 230.827 121.511 231.243 121.18 231.808L120.124 230.928C120.561 230.203 121.089 229.659 121.708 229.296C122.327 228.923 123.041 228.736 123.852 228.736C124.535 228.736 125.127 228.869 125.628 229.136C126.14 229.403 126.535 229.776 126.812 230.256C127.089 230.736 127.228 231.296 127.228 231.936C127.228 232.395 127.169 232.805 127.052 233.168C126.945 233.531 126.748 233.904 126.46 234.288C126.183 234.661 125.793 235.109 125.292 235.632L121.98 239.04L120.028 239.088ZM120.028 240V239.088L121.308 238.656H127.484V240H120.028ZM132.108 240.16C131.383 240.16 130.722 240.027 130.124 239.76C129.538 239.483 129.042 239.083 128.636 238.56L129.66 237.536C129.906 237.909 130.242 238.208 130.668 238.432C131.095 238.645 131.57 238.752 132.092 238.752C132.583 238.752 133.004 238.661 133.356 238.48C133.719 238.288 134.002 238.021 134.204 237.68C134.418 237.339 134.524 236.944 134.524 236.496C134.524 236.037 134.418 235.643 134.204 235.312C134.002 234.971 133.714 234.709 133.34 234.528C132.967 234.347 132.524 234.256 132.012 234.256C131.82 234.256 131.628 234.272 131.436 234.304C131.244 234.325 131.058 234.363 130.876 234.416L131.516 233.552C131.719 233.456 131.938 233.381 132.172 233.328C132.407 233.275 132.642 233.248 132.876 233.248C133.474 233.248 134.007 233.387 134.476 233.664C134.956 233.941 135.335 234.331 135.612 234.832C135.9 235.333 136.044 235.915 136.044 236.576C136.044 237.28 135.874 237.904 135.532 238.448C135.202 238.981 134.743 239.403 134.156 239.712C133.57 240.011 132.887 240.16 132.108 240.16ZM130.876 234.416V233.504L134.124 229.808L135.916 229.792L132.572 233.584L130.876 234.416ZM129.164 230.24V228.896H135.916V229.792L134.604 230.24H129.164Z" fill="white"/>
<rect x="155" y="216" width="45" height="36" rx="16" fill="#252B33" fill-opacity="0.64"/>
<path d="M168.528 239.088L172.624 234.768C173.04 234.341 173.365 233.973 173.6 233.664C173.835 233.344 174 233.051 174.096 232.784C174.203 232.517 174.256 232.24 174.256 231.952C174.256 231.387 174.075 230.944 173.712 230.624C173.349 230.304 172.88 230.144 172.304 230.144C171.739 230.144 171.243 230.283 170.816 230.56C170.389 230.827 170.011 231.243 169.68 231.808L168.624 230.928C169.061 230.203 169.589 229.659 170.208 229.296C170.827 228.923 171.541 228.736 172.352 228.736C173.035 228.736 173.627 228.869 174.128 229.136C174.64 229.403 175.035 229.776 175.312 230.256C175.589 230.736 175.728 231.296 175.728 231.936C175.728 232.395 175.669 232.805 175.552 233.168C175.445 233.531 175.248 233.904 174.96 234.288C174.683 234.661 174.293 235.109 173.792 235.632L170.48 239.04L168.528 239.088ZM168.528 240V239.088L169.808 238.656H175.984V240H168.528ZM177.184 236.176L181.232 228.896H182.928L178.8 236.176H177.184ZM177.184 237.104V236.176L177.824 235.76H185.696V237.104H177.184ZM182.608 240V232.656H184.096V240H182.608Z" fill="white"/>
<rect x="204" y="216" width="45" height="36" rx="16" fill="#252B33" fill-opacity="0.64"/>
<path d="M218.028 239.088L222.124 234.768C222.54 234.341 222.865 233.973 223.1 233.664C223.335 233.344 223.5 233.051 223.596 232.784C223.703 232.517 223.756 232.24 223.756 231.952C223.756 231.387 223.575 230.944 223.212 230.624C222.849 230.304 222.38 230.144 221.804 230.144C221.239 230.144 220.743 230.283 220.316 230.56C219.889 230.827 219.511 231.243 219.18 231.808L218.124 230.928C218.561 230.203 219.089 229.659 219.708 229.296C220.327 228.923 221.041 228.736 221.852 228.736C222.535 228.736 223.127 228.869 223.628 229.136C224.14 229.403 224.535 229.776 224.812 230.256C225.089 230.736 225.228 231.296 225.228 231.936C225.228 232.395 225.169 232.805 225.052 233.168C224.945 233.531 224.748 233.904 224.46 234.288C224.183 234.661 223.793 235.109 223.292 235.632L219.98 239.04L218.028 239.088ZM218.028 240V239.088L219.308 238.656H225.484V240H218.028ZM230.124 240.16C229.367 240.16 228.69 240.027 228.092 239.76C227.506 239.483 227.01 239.083 226.604 238.56L227.628 237.536C227.874 237.909 228.21 238.208 228.636 238.432C229.074 238.645 229.559 238.752 230.092 238.752C230.594 238.752 231.031 238.656 231.404 238.464C231.788 238.272 232.087 238.005 232.3 237.664C232.524 237.312 232.636 236.896 232.636 236.416C232.636 235.925 232.53 235.509 232.316 235.168C232.103 234.827 231.815 234.571 231.452 234.4C231.1 234.219 230.711 234.128 230.284 234.128C229.847 234.128 229.447 234.181 229.084 234.288C228.732 234.395 228.396 234.576 228.076 234.832L228.092 233.872C228.274 233.648 228.482 233.467 228.716 233.328C228.951 233.189 229.218 233.083 229.516 233.008C229.815 232.933 230.162 232.896 230.556 232.896C231.324 232.896 231.975 233.056 232.508 233.376C233.042 233.696 233.447 234.128 233.724 234.672C234.012 235.216 234.156 235.824 234.156 236.496C234.156 237.2 233.98 237.829 233.628 238.384C233.287 238.939 232.812 239.376 232.204 239.696C231.596 240.005 230.903 240.16 230.124 240.16ZM228.076 234.832L227.26 234.016L227.756 228.896H229.132L228.572 234.16L228.076 234.832ZM228.06 230.24L227.756 228.896H233.596V230.24H228.06Z" fill="white"/>
<rect x="253" y="216" width="45" height="36" rx="16" fill="#252B33" fill-opacity="0.64"/>
<path d="M267.028 239.088L271.124 234.768C271.54 234.341 271.865 233.973 272.1 233.664C272.335 233.344 272.5 233.051 272.596 232.784C272.703 232.517 272.756 232.24 272.756 231.952C272.756 231.387 272.575 230.944 272.212 230.624C271.849 230.304 271.38 230.144 270.804 230.144C270.239 230.144 269.743 230.283 269.316 230.56C268.889 230.827 268.511 231.243 268.18 231.808L267.124 230.928C267.561 230.203 268.089 229.659 268.708 229.296C269.327 228.923 270.041 228.736 270.852 228.736C271.535 228.736 272.127 228.869 272.628 229.136C273.14 229.403 273.535 229.776 273.812 230.256C274.089 230.736 274.228 231.296 274.228 231.936C274.228 232.395 274.169 232.805 274.052 233.168C273.945 233.531 273.748 233.904 273.46 234.288C273.183 234.661 272.793 235.109 272.292 235.632L268.98 239.04L267.028 239.088ZM267.028 240V239.088L268.308 238.656H274.484V240H267.028ZM279.668 240.16C278.932 240.16 278.271 239.989 277.684 239.648C277.108 239.307 276.65 238.848 276.308 238.272C275.967 237.696 275.796 237.056 275.796 236.352C275.796 235.371 276.138 234.395 276.82 233.424L280.084 228.896H281.828L278.484 233.456L277.94 233.744C278.068 233.52 278.223 233.333 278.404 233.184C278.586 233.024 278.81 232.901 279.076 232.816C279.343 232.731 279.658 232.688 280.02 232.688C280.671 232.688 281.258 232.843 281.78 233.152C282.314 233.461 282.74 233.888 283.06 234.432C283.391 234.965 283.556 235.589 283.556 236.304C283.556 237.008 283.38 237.653 283.028 238.24C282.687 238.827 282.218 239.296 281.62 239.648C281.034 239.989 280.383 240.16 279.668 240.16ZM279.668 238.752C280.116 238.752 280.516 238.645 280.868 238.432C281.231 238.208 281.514 237.915 281.716 237.552C281.93 237.179 282.036 236.763 282.036 236.304C282.036 235.845 281.93 235.435 281.716 235.072C281.514 234.699 281.231 234.405 280.868 234.192C280.516 233.979 280.116 233.872 279.668 233.872C279.22 233.872 278.815 233.979 278.452 234.192C278.1 234.405 277.818 234.699 277.604 235.072C277.402 235.435 277.3 235.845 277.3 236.304C277.3 236.763 277.402 237.179 277.604 237.552C277.818 237.925 278.1 238.219 278.452 238.432C278.815 238.645 279.22 238.752 279.668 238.752Z" fill="white"/>
<rect x="302" y="216" width="45" height="36" rx="16" fill="#252B33" fill-opacity="0.64"/>
<path d="M316.528 239.088L320.624 234.768C321.04 234.341 321.365 233.973 321.6 233.664C321.835 233.344 322 233.051 322.096 232.784C322.203 232.517 322.256 232.24 322.256 231.952C322.256 231.387 322.075 230.944 321.712 230.624C321.349 230.304 320.88 230.144 320.304 230.144C319.739 230.144 319.243 230.283 318.816 230.56C318.389 230.827 318.011 231.243 317.68 231.808L316.624 230.928C317.061 230.203 317.589 229.659 318.208 229.296C318.827 228.923 319.541 228.736 320.352 228.736C321.035 228.736 321.627 228.869 322.128 229.136C322.64 229.403 323.035 229.776 323.312 230.256C323.589 230.736 323.728 231.296 323.728 231.936C323.728 232.395 323.669 232.805 323.552 233.168C323.445 233.531 323.248 233.904 322.96 234.288C322.683 234.661 322.293 235.109 321.792 235.632L318.48 239.04L316.528 239.088ZM316.528 240V239.088L317.808 238.656H323.984V240H316.528ZM326.474 240L330.634 229.776L332.122 229.824L328.058 240H326.474ZM324.73 230.24V228.896H332.122V229.824L331.466 230.24H324.73Z" fill="white"/>
<rect x="8" y="256" width="45" height="36" rx="16" fill="#252B33" fill-opacity="0.64"/>
<path d="M22.028 279.088L26.124 274.768C26.54 274.341 26.8653 273.973 27.1 273.664C27.3347 273.344 27.5 273.051 27.596 272.784C27.7027 272.517 27.756 272.24 27.756 271.952C27.756 271.387 27.5747 270.944 27.212 270.624C26.8493 270.304 26.38 270.144 25.804 270.144C25.2387 270.144 24.7427 270.283 24.316 270.56C23.8893 270.827 23.5107 271.243 23.18 271.808L22.124 270.928C22.5613 270.203 23.0893 269.659 23.708 269.296C24.3267 268.923 25.0413 268.736 25.852 268.736C26.5347 268.736 27.1267 268.869 27.628 269.136C28.14 269.403 28.5347 269.776 28.812 270.256C29.0893 270.736 29.228 271.296 29.228 271.936C29.228 272.395 29.1693 272.805 29.052 273.168C28.9453 273.531 28.748 273.904 28.46 274.288C28.1827 274.661 27.7933 275.109 27.292 275.632L23.98 279.04L22.028 279.088ZM22.028 280V279.088L23.308 278.656H29.484V280H22.028ZM34.5563 280.16C33.8203 280.16 33.1696 280.021 32.6043 279.744C32.0496 279.467 31.6176 279.083 31.3083 278.592C30.9989 278.101 30.8443 277.547 30.8443 276.928C30.8443 276.427 30.9403 275.968 31.1323 275.552C31.3243 275.136 31.6069 274.784 31.9803 274.496C32.3536 274.197 32.7909 273.984 33.2923 273.856L33.3403 274.288C32.9136 274.171 32.5509 273.984 32.2523 273.728C31.9536 273.461 31.7243 273.152 31.5643 272.8C31.4149 272.437 31.3403 272.053 31.3403 271.648C31.3403 271.072 31.4789 270.565 31.7563 270.128C32.0336 269.691 32.4123 269.349 32.8923 269.104C33.3829 268.848 33.9376 268.72 34.5563 268.72C35.1856 268.72 35.7403 268.848 36.2203 269.104C36.7003 269.349 37.0789 269.691 37.3563 270.128C37.6336 270.565 37.7723 271.072 37.7723 271.648C37.7723 272.053 37.6923 272.437 37.5323 272.8C37.3829 273.152 37.1589 273.461 36.8603 273.728C36.5723 273.984 36.2149 274.171 35.7883 274.288L35.8203 273.856C36.3323 273.984 36.7696 274.197 37.1323 274.496C37.5056 274.784 37.7883 275.136 37.9803 275.552C38.1829 275.968 38.2843 276.427 38.2843 276.928C38.2843 277.547 38.1296 278.101 37.8203 278.592C37.5109 279.083 37.0736 279.467 36.5083 279.744C35.9536 280.021 35.3029 280.16 34.5563 280.16ZM34.5563 278.8C35.0043 278.8 35.3936 278.715 35.7243 278.544C36.0656 278.363 36.3323 278.117 36.5243 277.808C36.7269 277.499 36.8283 277.141 36.8283 276.736C36.8283 276.341 36.7269 275.989 36.5243 275.68C36.3323 275.371 36.0656 275.131 35.7243 274.96C35.3936 274.779 35.0043 274.688 34.5563 274.688C34.1189 274.688 33.7296 274.779 33.3883 274.96C33.0469 275.131 32.7749 275.371 32.5723 275.68C32.3803 275.989 32.2843 276.341 32.2843 276.736C32.2843 277.141 32.3803 277.499 32.5723 277.808C32.7749 278.117 33.0469 278.363 33.3883 278.544C33.7296 278.715 34.1189 278.8 34.5563 278.8ZM34.5563 273.52C35.0896 273.52 35.5269 273.355 35.8683 273.024C36.2096 272.693 36.3803 272.267 36.3803 271.744C36.3803 271.232 36.2096 270.816 35.8683 270.496C35.5269 270.165 35.0896 270 34.5563 270C34.0336 270 33.6016 270.165 33.2603 270.496C32.9189 270.816 32.7483 271.232 32.7483 271.744C32.7483 272.267 32.9189 272.693 33.2603 273.024C33.6016 273.355 34.0336 273.52 34.5563 273.52Z" fill="white"/>
<rect x="57" y="256" width="45" height="36" rx="16" fill="#252B33" fill-opacity="0.64"/>
<path d="M71.028 279.088L75.124 274.768C75.54 274.341 75.8653 273.973 76.1 273.664C76.3347 273.344 76.5 273.051 76.596 272.784C76.7027 272.517 76.756 272.24 76.756 271.952C76.756 271.387 76.5747 270.944 76.212 270.624C75.8493 270.304 75.38 270.144 74.804 270.144C74.2387 270.144 73.7427 270.283 73.316 270.56C72.8893 270.827 72.5107 271.243 72.18 271.808L71.124 270.928C71.5613 270.203 72.0893 269.659 72.708 269.296C73.3267 268.923 74.0413 268.736 74.852 268.736C75.5347 268.736 76.1267 268.869 76.628 269.136C77.14 269.403 77.5347 269.776 77.812 270.256C78.0893 270.736 78.228 271.296 78.228 271.936C78.228 272.395 78.1693 272.805 78.052 273.168C77.9453 273.531 77.748 273.904 77.46 274.288C77.1827 274.661 76.7933 275.109 76.292 275.632L72.98 279.04L71.028 279.088ZM71.028 280V279.088L72.308 278.656H78.484V280H71.028ZM81.5082 280L84.8523 275.44L85.3963 275.152C85.2683 275.365 85.1136 275.552 84.9323 275.712C84.7509 275.872 84.5269 275.995 84.2603 276.08C84.0043 276.165 83.6896 276.208 83.3163 276.208C82.6763 276.208 82.0843 276.053 81.5403 275.744C81.0069 275.435 80.5803 275.008 80.2603 274.464C79.9403 273.909 79.7803 273.285 79.7803 272.592C79.7803 271.877 79.9563 271.232 80.3083 270.656C80.6603 270.069 81.1296 269.605 81.7163 269.264C82.3029 268.912 82.9536 268.736 83.6683 268.736C84.3936 268.736 85.0496 268.907 85.6363 269.248C86.2229 269.589 86.6869 270.048 87.0283 270.624C87.3696 271.189 87.5403 271.829 87.5403 272.544C87.5403 273.525 87.1989 274.501 86.5163 275.472L83.2523 280H81.5082ZM83.6683 275.024C84.1163 275.024 84.5163 274.917 84.8683 274.704C85.2309 274.48 85.5136 274.187 85.7163 273.824C85.9296 273.451 86.0363 273.04 86.0363 272.592C86.0363 272.123 85.9296 271.707 85.7163 271.344C85.5136 270.971 85.2309 270.677 84.8683 270.464C84.5163 270.251 84.1163 270.144 83.6683 270.144C83.2203 270.144 82.8149 270.251 82.4523 270.464C82.1003 270.677 81.8176 270.971 81.6043 271.344C81.3909 271.707 81.2843 272.123 81.2843 272.592C81.2843 273.051 81.3909 273.461 81.6043 273.824C81.8176 274.187 82.1056 274.48 82.4683 274.704C82.8309 274.917 83.2309 275.024 83.6683 275.024Z" fill="white"/>
<rect x="106" y="256" width="45" height="36" rx="16" fill="#252B33" fill-opacity="0.64"/>
<path d="M122.452 280.16C121.727 280.16 121.065 280.027 120.468 279.76C119.881 279.483 119.385 279.083 118.98 278.56L120.004 277.536C120.249 277.909 120.585 278.208 121.012 278.432C121.439 278.645 121.913 278.752 122.436 278.752C122.927 278.752 123.348 278.661 123.7 278.48C124.063 278.288 124.345 278.021 124.548 277.68C124.761 277.339 124.868 276.944 124.868 276.496C124.868 276.037 124.761 275.643 124.548 275.312C124.345 274.971 124.057 274.709 123.684 274.528C123.311 274.347 122.868 274.256 122.356 274.256C122.164 274.256 121.972 274.272 121.78 274.304C121.588 274.325 121.401 274.363 121.22 274.416L121.86 273.552C122.063 273.456 122.281 273.381 122.516 273.328C122.751 273.275 122.985 273.248 123.22 273.248C123.817 273.248 124.351 273.387 124.82 273.664C125.3 273.941 125.679 274.331 125.956 274.832C126.244 275.333 126.388 275.915 126.388 276.576C126.388 277.28 126.217 277.904 125.876 278.448C125.545 278.981 125.087 279.403 124.5 279.712C123.913 280.011 123.231 280.16 122.452 280.16ZM121.22 274.416V273.504L124.468 269.808L126.26 269.792L122.916 273.584L121.22 274.416ZM119.508 270.24V268.896H126.26V269.792L124.948 270.24H119.508ZM132.389 280.16C131.557 280.16 130.795 279.925 130.101 279.456C129.419 278.987 128.875 278.325 128.469 277.472C128.064 276.608 127.861 275.595 127.861 274.432C127.861 273.269 128.059 272.261 128.453 271.408C128.859 270.555 129.403 269.899 130.085 269.44C130.768 268.971 131.52 268.736 132.341 268.736C133.184 268.736 133.947 268.971 134.629 269.44C135.312 269.899 135.851 270.555 136.245 271.408C136.651 272.261 136.853 273.275 136.853 274.448C136.853 275.611 136.651 276.624 136.245 277.488C135.851 278.341 135.312 279.003 134.629 279.472C133.957 279.931 133.211 280.16 132.389 280.16ZM132.357 278.736C132.944 278.736 133.456 278.576 133.893 278.256C134.341 277.925 134.693 277.44 134.949 276.8C135.205 276.16 135.333 275.371 135.333 274.432C135.333 273.493 135.205 272.709 134.949 272.08C134.693 271.44 134.341 270.96 133.893 270.64C133.445 270.309 132.928 270.144 132.341 270.144C131.765 270.144 131.253 270.309 130.805 270.64C130.357 270.96 130.005 271.44 129.749 272.08C129.504 272.709 129.381 273.493 129.381 274.432C129.381 275.371 129.504 276.16 129.749 276.8C130.005 277.44 130.357 277.925 130.805 278.256C131.253 278.576 131.771 278.736 132.357 278.736Z" fill="white"/>
<rect x="155" y="256" width="45" height="36" rx="16" fill="#252B33" fill-opacity="0.64"/>
<path d="M173.952 280.16C173.227 280.16 172.565 280.027 171.968 279.76C171.381 279.483 170.885 279.083 170.48 278.56L171.504 277.536C171.749 277.909 172.085 278.208 172.512 278.432C172.939 278.645 173.413 278.752 173.936 278.752C174.427 278.752 174.848 278.661 175.2 278.48C175.563 278.288 175.845 278.021 176.048 277.68C176.261 277.339 176.368 276.944 176.368 276.496C176.368 276.037 176.261 275.643 176.048 275.312C175.845 274.971 175.557 274.709 175.184 274.528C174.811 274.347 174.368 274.256 173.856 274.256C173.664 274.256 173.472 274.272 173.28 274.304C173.088 274.325 172.901 274.363 172.72 274.416L173.36 273.552C173.563 273.456 173.781 273.381 174.016 273.328C174.251 273.275 174.485 273.248 174.72 273.248C175.317 273.248 175.851 273.387 176.32 273.664C176.8 273.941 177.179 274.331 177.456 274.832C177.744 275.333 177.888 275.915 177.888 276.576C177.888 277.28 177.717 277.904 177.376 278.448C177.045 278.981 176.587 279.403 176 279.712C175.413 280.011 174.731 280.16 173.952 280.16ZM172.72 274.416V273.504L175.968 269.808L177.76 269.792L174.416 273.584L172.72 274.416ZM171.008 270.24V268.896H177.76V269.792L176.448 270.24H171.008ZM181.377 280V268.896H182.865V280H181.377ZM179.105 270.24V268.896H182.705V270.24H179.105Z" fill="white"/>
</svg>
