<svg width="27" height="27" viewBox="0 0 27 27" fill="none" xmlns="http://www.w3.org/2000/svg">
<path d="M13.5 4.75C18.3325 4.75 22.25 8.66751 22.25 13.5C22.25 18.3325 18.3325 22.25 13.5 22.25C8.66751 22.25 4.75 18.3325 4.75 13.5C4.75 8.66751 8.66751 4.75 13.5 4.75ZM13.5 6.75C13.0858 6.75 12.75 7.08579 12.75 7.5V13.0859C12.75 13.55 12.9345 13.9951 13.2627 14.3232L16.4697 17.5303C16.7626 17.8232 17.2374 17.8232 17.5303 17.5303C17.8232 17.2374 17.8232 16.7626 17.5303 16.4697L14.3232 13.2627C14.2764 13.2158 14.25 13.1522 14.25 13.0859V7.5C14.25 7.08579 13.9142 6.75 13.5 6.75Z" stroke="white" stroke-width="1.5" stroke-linecap="round"/>
</svg>
