<svg width="21" height="14" viewBox="0 0 21 14" fill="none" xmlns="http://www.w3.org/2000/svg">
<path d="M3.84613 13V1.896H5.33413V13H3.84613ZM1.57413 3.24V1.896H5.17413V3.24H1.57413ZM8.945 13.16C8.64633 13.16 8.39567 13.0587 8.193 12.856C8.001 12.6427 7.905 12.392 7.905 12.104C7.905 11.8053 8.001 11.56 8.193 11.368C8.39567 11.1653 8.64633 11.064 8.945 11.064C9.24367 11.064 9.489 11.1653 9.681 11.368C9.88367 11.56 9.985 11.8053 9.985 12.104C9.985 12.392 9.88367 12.6427 9.681 12.856C9.489 13.0587 9.24367 13.16 8.945 13.16ZM15.2336 13.16C14.4763 13.16 13.799 13.0267 13.2016 12.76C12.615 12.4827 12.119 12.0827 11.7136 11.56L12.7376 10.536C12.983 10.9093 13.319 11.208 13.7456 11.432C14.183 11.6453 14.6683 11.752 15.2016 11.752C15.703 11.752 16.1403 11.656 16.5136 11.464C16.8976 11.272 17.1963 11.0053 17.4096 10.664C17.6336 10.312 17.7456 9.896 17.7456 9.416C17.7456 8.92533 17.639 8.50933 17.4256 8.168C17.2123 7.82667 16.9243 7.57067 16.5616 7.4C16.2096 7.21867 15.8203 7.128 15.3936 7.128C14.9563 7.128 14.5563 7.18133 14.1936 7.288C13.8416 7.39467 13.5056 7.576 13.1856 7.832L13.2016 6.872C13.383 6.648 13.591 6.46667 13.8256 6.328C14.0603 6.18933 14.327 6.08267 14.6256 6.008C14.9243 5.93333 15.271 5.896 15.6656 5.896C16.4336 5.896 17.0843 6.056 17.6176 6.376C18.151 6.696 18.5563 7.128 18.8336 7.672C19.1216 8.216 19.2656 8.824 19.2656 9.496C19.2656 10.2 19.0896 10.8293 18.7376 11.384C18.3963 11.9387 17.9216 12.376 17.3136 12.696C16.7056 13.0053 16.0123 13.16 15.2336 13.16ZM13.1856 7.832L12.3696 7.016L12.8656 1.896H14.2416L13.6816 7.16L13.1856 7.832ZM13.1696 3.24L12.8656 1.896H18.7056V3.24H13.1696Z" fill="white"/>
</svg>
