<svg width="39" height="14" viewBox="0 0 39 14" fill="none" xmlns="http://www.w3.org/2000/svg">
<path d="M9.05144 12.088L13.1474 7.768C13.5634 7.34133 13.8888 6.97333 14.1234 6.664C14.3581 6.344 14.5234 6.05067 14.6194 5.784C14.7261 5.51733 14.7794 5.24 14.7794 4.952C14.7794 4.38667 14.5981 3.944 14.2354 3.624C13.8728 3.304 13.4034 3.144 12.8274 3.144C12.2621 3.144 11.7661 3.28267 11.3394 3.56C10.9128 3.82667 10.5341 4.24267 10.2034 4.808L9.14744 3.928C9.58477 3.20267 10.1128 2.65867 10.7314 2.296C11.3501 1.92267 12.0648 1.736 12.8754 1.736C13.5581 1.736 14.1501 1.86933 14.6514 2.136C15.1634 2.40267 15.5581 2.776 15.8354 3.256C16.1128 3.736 16.2514 4.296 16.2514 4.936C16.2514 5.39467 16.1928 5.80533 16.0754 6.168C15.9688 6.53067 15.7714 6.904 15.4834 7.288C15.2061 7.66133 14.8168 8.10933 14.3154 8.632L11.0034 12.04L9.05144 12.088ZM9.05144 13V12.088L10.3314 11.656H16.5074V13H9.05144ZM19.4997 13.16C19.201 13.16 18.9504 13.0587 18.7477 12.856C18.5557 12.6427 18.4597 12.392 18.4597 12.104C18.4597 11.8053 18.5557 11.56 18.7477 11.368C18.9504 11.1653 19.201 11.064 19.4997 11.064C19.7984 11.064 20.0437 11.1653 20.2357 11.368C20.4384 11.56 20.5397 11.8053 20.5397 12.104C20.5397 12.392 20.4384 12.6427 20.2357 12.856C20.0437 13.0587 19.7984 13.16 19.4997 13.16ZM25.7883 13.16C25.031 13.16 24.3536 13.0267 23.7563 12.76C23.1696 12.4827 22.6736 12.0827 22.2683 11.56L23.2923 10.536C23.5376 10.9093 23.8736 11.208 24.3003 11.432C24.7376 11.6453 25.223 11.752 25.7563 11.752C26.2576 11.752 26.695 11.656 27.0683 11.464C27.4523 11.272 27.751 11.0053 27.9643 10.664C28.1883 10.312 28.3003 9.896 28.3003 9.416C28.3003 8.92533 28.1936 8.50933 27.9803 8.168C27.767 7.82667 27.479 7.57067 27.1163 7.4C26.7643 7.21867 26.375 7.128 25.9483 7.128C25.511 7.128 25.111 7.18133 24.7483 7.288C24.3963 7.39467 24.0603 7.576 23.7403 7.832L23.7563 6.872C23.9376 6.648 24.1456 6.46667 24.3803 6.328C24.615 6.18933 24.8816 6.08267 25.1803 6.008C25.479 5.93333 25.8256 5.896 26.2203 5.896C26.9883 5.896 27.639 6.056 28.1723 6.376C28.7056 6.696 29.111 7.128 29.3883 7.672C29.6763 8.216 29.8203 8.824 29.8203 9.496C29.8203 10.2 29.6443 10.8293 29.2923 11.384C28.951 11.9387 28.4763 12.376 27.8683 12.696C27.2603 13.0053 26.567 13.16 25.7883 13.16ZM23.7403 7.832L22.9243 7.016L23.4203 1.896H24.7963L24.2363 7.16L23.7403 7.832ZM23.7243 3.24L23.4203 1.896H29.2603V3.24H23.7243Z" fill="white"/>
</svg>
