<svg width="11" height="14" viewBox="0 0 11 14" fill="none" xmlns="http://www.w3.org/2000/svg">
<path d="M1.69987 12.088L5.79588 7.768C6.21188 7.34133 6.53721 6.97333 6.77188 6.664C7.00654 6.344 7.17188 6.05067 7.26788 5.784C7.37454 5.51733 7.42788 5.24 7.42788 4.952C7.42788 4.38667 7.24654 3.944 6.88388 3.624C6.52121 3.304 6.05188 3.144 5.47588 3.144C4.91054 3.144 4.41454 3.28267 3.98788 3.56C3.56121 3.82667 3.18254 4.24267 2.85188 4.808L1.79588 3.928C2.23321 3.20267 2.76121 2.65867 3.37988 2.296C3.99854 1.92267 4.71321 1.736 5.52388 1.736C6.20654 1.736 6.79854 1.86933 7.29988 2.136C7.81188 2.40267 8.20654 2.776 8.48388 3.256C8.76121 3.736 8.89988 4.296 8.89988 4.936C8.89988 5.39467 8.84121 5.80533 8.72388 6.168C8.61721 6.53067 8.41988 6.904 8.13188 7.288C7.85454 7.66133 7.46521 8.10933 6.96388 8.632L3.65188 12.04L1.69987 12.088ZM1.69987 13V12.088L2.97988 11.656H9.15588V13H1.69987Z" fill="white"/>
</svg>
