<svg width="11" height="14" viewBox="0 0 11 14" fill="none" xmlns="http://www.w3.org/2000/svg">
<path d="M5.14731 13.16C4.42198 13.16 3.76065 13.0267 3.16331 12.76C2.57665 12.4827 2.08065 12.0827 1.67531 11.56L2.69931 10.536C2.94465 10.9093 3.28065 11.208 3.70731 11.432C4.13398 11.6453 4.60865 11.752 5.13131 11.752C5.62198 11.752 6.04331 11.6613 6.39531 11.48C6.75798 11.288 7.04065 11.0213 7.24331 10.68C7.45665 10.3387 7.56331 9.944 7.56331 9.496C7.56331 9.03733 7.45665 8.64267 7.24331 8.312C7.04065 7.97067 6.75265 7.70933 6.37931 7.528C6.00598 7.34667 5.56331 7.256 5.05131 7.256C4.85931 7.256 4.66731 7.272 4.47531 7.304C4.28331 7.32533 4.09665 7.36267 3.91531 7.416L4.55531 6.552C4.75798 6.456 4.97665 6.38133 5.21131 6.328C5.44598 6.27467 5.68065 6.248 5.91531 6.248C6.51265 6.248 7.04598 6.38667 7.51531 6.664C7.99531 6.94133 8.37398 7.33067 8.65131 7.832C8.93931 8.33333 9.08331 8.91467 9.08331 9.576C9.08331 10.28 8.91265 10.904 8.57131 11.448C8.24065 11.9813 7.78198 12.4027 7.19531 12.712C6.60865 13.0107 5.92598 13.16 5.14731 13.16ZM3.91531 7.416V6.504L7.16331 2.808L8.95531 2.792L5.61131 6.584L3.91531 7.416ZM2.20331 3.24V1.896H8.95531V2.792L7.64331 3.24H2.20331Z" fill="white"/>
</svg>
