<svg width="1440" height="1024" viewBox="0 0 1440 1024" fill="none" xmlns="http://www.w3.org/2000/svg" xmlns:xlink="http://www.w3.org/1999/xlink">
<g clip-path="url(#clip0_1247_217)">
<rect width="1440" height="1024" fill="white"/>
<rect width="1440" height="1024" fill="url(#pattern0_1247_217)"/>
<rect x="687" y="27" width="60" height="52" rx="24" fill="#B8BEC6"/>
<path d="M712.28 59.16C711.448 59.16 710.685 58.9253 709.992 58.456C709.309 57.9867 708.765 57.3253 708.36 56.472C707.955 55.608 707.752 54.5947 707.752 53.432C707.752 52.2693 707.949 51.2613 708.344 50.408C708.749 49.5547 709.293 48.8987 709.976 48.44C710.659 47.9707 711.411 47.736 712.232 47.736C713.075 47.736 713.837 47.9707 714.52 48.44C715.203 48.8987 715.741 49.5547 716.136 50.408C716.541 51.2613 716.744 52.2747 716.744 53.448C716.744 54.6107 716.541 55.624 716.136 56.488C715.741 57.3413 715.203 58.0027 714.52 58.472C713.848 58.9307 713.101 59.16 712.28 59.16ZM712.248 57.736C712.835 57.736 713.347 57.576 713.784 57.256C714.232 56.9253 714.584 56.44 714.84 55.8C715.096 55.16 715.224 54.3707 715.224 53.432C715.224 52.4933 715.096 51.7093 714.84 51.08C714.584 50.44 714.232 49.96 713.784 49.64C713.336 49.3093 712.819 49.144 712.232 49.144C711.656 49.144 711.144 49.3093 710.696 49.64C710.248 49.96 709.896 50.44 709.64 51.08C709.395 51.7093 709.272 52.4933 709.272 53.432C709.272 54.3707 709.395 55.16 709.64 55.8C709.896 56.44 710.248 56.9253 710.696 57.256C711.144 57.576 711.661 57.736 712.248 57.736ZM721.9 59.16C721.164 59.16 720.513 59.0213 719.948 58.744C719.393 58.4667 718.961 58.0827 718.652 57.592C718.343 57.1013 718.188 56.5467 718.188 55.928C718.188 55.4267 718.284 54.968 718.476 54.552C718.668 54.136 718.951 53.784 719.324 53.496C719.697 53.1973 720.135 52.984 720.636 52.856L720.684 53.288C720.257 53.1707 719.895 52.984 719.596 52.728C719.297 52.4613 719.068 52.152 718.908 51.8C718.759 51.4373 718.684 51.0533 718.684 50.648C718.684 50.072 718.823 49.5653 719.1 49.128C719.377 48.6907 719.756 48.3493 720.236 48.104C720.727 47.848 721.281 47.72 721.9 47.72C722.529 47.72 723.084 47.848 723.564 48.104C724.044 48.3493 724.423 48.6907 724.7 49.128C724.977 49.5653 725.116 50.072 725.116 50.648C725.116 51.0533 725.036 51.4373 724.876 51.8C724.727 52.152 724.503 52.4613 724.204 52.728C723.916 52.984 723.559 53.1707 723.132 53.288L723.164 52.856C723.676 52.984 724.113 53.1973 724.476 53.496C724.849 53.784 725.132 54.136 725.324 54.552C725.527 54.968 725.628 55.4267 725.628 55.928C725.628 56.5467 725.473 57.1013 725.164 57.592C724.855 58.0827 724.417 58.4667 723.852 58.744C723.297 59.0213 722.647 59.16 721.9 59.16ZM721.9 57.8C722.348 57.8 722.737 57.7147 723.068 57.544C723.409 57.3627 723.676 57.1173 723.868 56.808C724.071 56.4987 724.172 56.1413 724.172 55.736C724.172 55.3413 724.071 54.9893 723.868 54.68C723.676 54.3707 723.409 54.1307 723.068 53.96C722.737 53.7787 722.348 53.688 721.9 53.688C721.463 53.688 721.073 53.7787 720.732 53.96C720.391 54.1307 720.119 54.3707 719.916 54.68C719.724 54.9893 719.628 55.3413 719.628 55.736C719.628 56.1413 719.724 56.4987 719.916 56.808C720.119 57.1173 720.391 57.3627 720.732 57.544C721.073 57.7147 721.463 57.8 721.9 57.8ZM721.9 52.52C722.433 52.52 722.871 52.3547 723.212 52.024C723.553 51.6933 723.724 51.2667 723.724 50.744C723.724 50.232 723.553 49.816 723.212 49.496C722.871 49.1653 722.433 49 721.9 49C721.377 49 720.945 49.1653 720.604 49.496C720.263 49.816 720.092 50.232 720.092 50.744C720.092 51.2667 720.263 51.6933 720.604 52.024C720.945 52.3547 721.377 52.52 721.9 52.52Z" fill="white"/>
<rect x="675" y="947" width="84" height="56" rx="24" fill="#B8BEC6" fill-opacity="0.32"/>
<path d="M699.496 981L704.04 969.896H705.128L709.656 981H708.024L704.296 971.608H704.856L701.096 981H699.496ZM701.656 978.488V977.176H707.496V978.488H701.656ZM713.613 981.16C713.186 981.16 712.781 981.107 712.397 981C712.023 980.883 711.677 980.723 711.357 980.52C711.037 980.307 710.759 980.056 710.525 979.768L711.453 978.84C711.73 979.181 712.05 979.437 712.413 979.608C712.775 979.768 713.181 979.848 713.629 979.848C714.077 979.848 714.423 979.773 714.669 979.624C714.914 979.464 715.037 979.245 715.037 978.968C715.037 978.691 714.935 978.477 714.733 978.328C714.541 978.168 714.29 978.04 713.981 977.944C713.671 977.837 713.341 977.736 712.989 977.64C712.647 977.533 712.322 977.4 712.013 977.24C711.703 977.08 711.447 976.861 711.245 976.584C711.053 976.307 710.957 975.939 710.957 975.48C710.957 975.021 711.069 974.627 711.293 974.296C711.517 973.955 711.826 973.693 712.221 973.512C712.626 973.331 713.111 973.24 713.677 973.24C714.274 973.24 714.802 973.347 715.261 973.56C715.73 973.763 716.114 974.072 716.413 974.488L715.485 975.416C715.271 975.139 715.005 974.925 714.685 974.776C714.375 974.627 714.023 974.552 713.629 974.552C713.213 974.552 712.893 974.627 712.669 974.776C712.455 974.915 712.349 975.112 712.349 975.368C712.349 975.624 712.445 975.821 712.637 975.96C712.829 976.099 713.079 976.216 713.389 976.312C713.709 976.408 714.039 976.509 714.381 976.616C714.722 976.712 715.047 976.845 715.357 977.016C715.666 977.187 715.917 977.416 716.109 977.704C716.311 977.992 716.413 978.371 716.413 978.84C716.413 979.555 716.157 980.12 715.645 980.536C715.143 980.952 714.466 981.16 713.613 981.16ZM722.889 981L719.337 977.112L722.857 973.4H724.601L720.681 977.496L720.745 976.664L724.745 981H722.889ZM718.025 981V969.576H719.465V981H718.025ZM727.008 981.16C726.709 981.16 726.458 981.059 726.256 980.856C726.064 980.643 725.968 980.392 725.968 980.104C725.968 979.805 726.064 979.56 726.256 979.368C726.458 979.165 726.709 979.064 727.008 979.064C727.306 979.064 727.552 979.165 727.744 979.368C727.946 979.56 728.048 979.805 728.048 980.104C728.048 980.392 727.946 980.643 727.744 980.856C727.552 981.059 727.306 981.16 727.008 981.16ZM731.648 981.16C731.349 981.16 731.099 981.059 730.896 980.856C730.704 980.643 730.608 980.392 730.608 980.104C730.608 979.805 730.704 979.56 730.896 979.368C731.099 979.165 731.349 979.064 731.648 979.064C731.947 979.064 732.192 979.165 732.384 979.368C732.587 979.56 732.688 979.805 732.688 980.104C732.688 980.392 732.587 980.643 732.384 980.856C732.192 981.059 731.947 981.16 731.648 981.16ZM736.289 981.16C735.99 981.16 735.739 981.059 735.537 980.856C735.345 980.643 735.249 980.392 735.249 980.104C735.249 979.805 735.345 979.56 735.537 979.368C735.739 979.165 735.99 979.064 736.289 979.064C736.587 979.064 736.833 979.165 737.025 979.368C737.227 979.56 737.329 979.805 737.329 980.104C737.329 980.392 737.227 980.643 737.025 980.856C736.833 981.059 736.587 981.16 736.289 981.16Z" fill="#848E9C"/>
<path d="M709.856 997.085C709.856 997.085 709.856 997.052 709.856 997.035C709.856 993.09 713.054 989.891 717 989.891C720.946 989.891 724.144 993.09 724.144 997.035C724.144 997.052 724.144 997.068 724.144 997.085H726.891C726.891 997.085 726.891 997.052 726.891 997.035C726.891 991.573 722.462 987.144 717 987.144C711.538 987.144 707.108 991.573 707.108 997.035C707.108 997.052 707.108 997.068 707.108 997.085H709.856Z" fill="black"/>
<path d="M722.05 985.05C720.759 986.342 718.973 987.144 717 987.144C713.054 987.144 709.856 983.946 709.856 980C709.856 976.054 713.054 972.856 717 972.856C718.973 972.856 720.759 973.658 722.05 974.95L723.995 973.004C722.204 971.213 719.731 970.108 717 970.108C711.538 970.108 707.108 974.538 707.108 980C707.108 985.462 711.538 989.891 717 989.891C719.731 989.891 722.204 988.787 723.995 986.995L722.05 985.05Z" fill="black"/>
<path d="M721.396 980C721.396 981.214 720.902 982.314 720.11 983.11L722.056 985.056C723.347 983.764 724.149 981.978 724.149 980.006C724.149 978.033 723.347 976.247 722.056 974.955L720.11 976.901C720.907 977.697 721.396 978.797 721.396 980.011V980Z" fill="black"/>
</g>
<defs>
<clipPath id="clip0_1247_217">
<rect width="1440" height="1024" fill="white"/>
</clipPath>
<pattern id="pattern0_1247_217" patternUnits="userSpaceOnUse" patternTransform="matrix(52 0 0 52 0 0)" preserveAspectRatio="none" viewBox="0 0 52 52" width="1" height="1">
<g id="pattern0_1247_217_inner">
<rect width="52" height="52" fill="white"/>
<circle cx="26" cy="26" r="2" fill="#E9E9E9"/>
</g>
</pattern></defs>
</svg>
