<svg width="1440" height="1024" viewBox="0 0 1440 1024" fill="none" xmlns="http://www.w3.org/2000/svg" xmlns:xlink="http://www.w3.org/1999/xlink">
<g clip-path="url(#clip0_1250_318)">
<rect width="1440" height="1024" fill="white"/>
<rect width="1440" height="1024" fill="url(#pattern0_1250_318)"/>
<rect x="27" y="27" width="125" height="52" rx="24" fill="#B8BEC6"/>
<path d="M48.408 59V47.992H49.24L53.992 55.784H53.4L58.152 47.992H58.984V59H57.8V50.04L58.072 50.104L54.104 56.616H53.272L49.304 50.104L49.576 50.04V59H48.408ZM64.775 59.16C64.0603 59.16 63.4203 58.9893 62.855 58.648C62.2897 58.296 61.8417 57.8267 61.511 57.24C61.191 56.6533 61.031 55.992 61.031 55.256C61.031 54.5093 61.191 53.8427 61.511 53.256C61.8417 52.6587 62.2897 52.1893 62.855 51.848C63.4203 51.496 64.055 51.32 64.759 51.32C65.335 51.32 65.847 51.4373 66.295 51.672C66.7537 51.896 67.1217 52.216 67.399 52.632C67.687 53.0373 67.863 53.512 67.927 54.056V56.408C67.863 56.952 67.687 57.432 67.399 57.848C67.1217 58.264 66.7537 58.5893 66.295 58.824C65.847 59.048 65.3403 59.16 64.775 59.16ZM64.951 58.088C65.7297 58.088 66.3537 57.8267 66.823 57.304C67.303 56.7813 67.543 56.0933 67.543 55.24C67.543 54.6747 67.431 54.1787 67.207 53.752C66.9937 53.3147 66.6897 52.9787 66.295 52.744C65.911 52.4987 65.4577 52.376 64.935 52.376C64.4017 52.376 63.927 52.4987 63.511 52.744C63.1057 52.9893 62.7803 53.3307 62.535 53.768C62.3003 54.1947 62.183 54.6853 62.183 55.24C62.183 55.7947 62.3003 56.2853 62.535 56.712C62.7803 57.1387 63.111 57.4747 63.527 57.72C63.943 57.9653 64.4177 58.088 64.951 58.088ZM67.479 59V56.984L67.703 55.128L67.479 53.32V51.48H68.599V59H67.479ZM70.8704 59V51.48H71.9904V59H70.8704ZM71.9904 54.616L71.5264 54.408C71.5264 53.4587 71.7557 52.7067 72.2144 52.152C72.6837 51.5973 73.3237 51.32 74.1344 51.32C74.5077 51.32 74.849 51.3893 75.1584 51.528C75.4677 51.656 75.7557 51.864 76.0224 52.152L75.2864 52.936C75.105 52.7333 74.9024 52.5893 74.6784 52.504C74.465 52.4187 74.2197 52.376 73.9424 52.376C73.3664 52.376 72.897 52.568 72.5344 52.952C72.1717 53.3253 71.9904 53.88 71.9904 54.616ZM77.4606 59.16C77.194 59.16 76.9753 59.0693 76.8046 58.888C76.634 58.7067 76.5486 58.488 76.5486 58.232C76.5486 57.976 76.634 57.7627 76.8046 57.592C76.9753 57.4107 77.194 57.32 77.4606 57.32C77.7166 57.32 77.93 57.4107 78.1006 57.592C78.2713 57.7627 78.3566 57.976 78.3566 58.232C78.3566 58.488 78.2713 58.7067 78.1006 58.888C77.93 59.0693 77.7166 59.16 77.4606 59.16Z" fill="white"/>
<rect x="100" y="35" width="44" height="36" rx="16" fill="#848E9C" fill-opacity="0.64"/>
<path d="M117.28 59.16C116.448 59.16 115.685 58.9253 114.992 58.456C114.309 57.9867 113.765 57.3253 113.36 56.472C112.955 55.608 112.752 54.5947 112.752 53.432C112.752 52.2693 112.949 51.2613 113.344 50.408C113.749 49.5547 114.293 48.8987 114.976 48.44C115.659 47.9707 116.411 47.736 117.232 47.736C118.075 47.736 118.837 47.9707 119.52 48.44C120.203 48.8987 120.741 49.5547 121.136 50.408C121.541 51.2613 121.744 52.2747 121.744 53.448C121.744 54.6107 121.541 55.624 121.136 56.488C120.741 57.3413 120.203 58.0027 119.52 58.472C118.848 58.9307 118.101 59.16 117.28 59.16ZM117.248 57.736C117.835 57.736 118.347 57.576 118.784 57.256C119.232 56.9253 119.584 56.44 119.84 55.8C120.096 55.16 120.224 54.3707 120.224 53.432C120.224 52.4933 120.096 51.7093 119.84 51.08C119.584 50.44 119.232 49.96 118.784 49.64C118.336 49.3093 117.819 49.144 117.232 49.144C116.656 49.144 116.144 49.3093 115.696 49.64C115.248 49.96 114.896 50.44 114.64 51.08C114.395 51.7093 114.272 52.4933 114.272 53.432C114.272 54.3707 114.395 55.16 114.64 55.8C114.896 56.44 115.248 56.9253 115.696 57.256C116.144 57.576 116.661 57.736 117.248 57.736ZM126.9 59.16C126.164 59.16 125.513 59.0213 124.948 58.744C124.393 58.4667 123.961 58.0827 123.652 57.592C123.343 57.1013 123.188 56.5467 123.188 55.928C123.188 55.4267 123.284 54.968 123.476 54.552C123.668 54.136 123.951 53.784 124.324 53.496C124.697 53.1973 125.135 52.984 125.636 52.856L125.684 53.288C125.257 53.1707 124.895 52.984 124.596 52.728C124.297 52.4613 124.068 52.152 123.908 51.8C123.759 51.4373 123.684 51.0533 123.684 50.648C123.684 50.072 123.823 49.5653 124.1 49.128C124.377 48.6907 124.756 48.3493 125.236 48.104C125.727 47.848 126.281 47.72 126.9 47.72C127.529 47.72 128.084 47.848 128.564 48.104C129.044 48.3493 129.423 48.6907 129.7 49.128C129.977 49.5653 130.116 50.072 130.116 50.648C130.116 51.0533 130.036 51.4373 129.876 51.8C129.727 52.152 129.503 52.4613 129.204 52.728C128.916 52.984 128.559 53.1707 128.132 53.288L128.164 52.856C128.676 52.984 129.113 53.1973 129.476 53.496C129.849 53.784 130.132 54.136 130.324 54.552C130.527 54.968 130.628 55.4267 130.628 55.928C130.628 56.5467 130.473 57.1013 130.164 57.592C129.855 58.0827 129.417 58.4667 128.852 58.744C128.297 59.0213 127.647 59.16 126.9 59.16ZM126.9 57.8C127.348 57.8 127.737 57.7147 128.068 57.544C128.409 57.3627 128.676 57.1173 128.868 56.808C129.071 56.4987 129.172 56.1413 129.172 55.736C129.172 55.3413 129.071 54.9893 128.868 54.68C128.676 54.3707 128.409 54.1307 128.068 53.96C127.737 53.7787 127.348 53.688 126.9 53.688C126.463 53.688 126.073 53.7787 125.732 53.96C125.391 54.1307 125.119 54.3707 124.916 54.68C124.724 54.9893 124.628 55.3413 124.628 55.736C124.628 56.1413 124.724 56.4987 124.916 56.808C125.119 57.1173 125.391 57.3627 125.732 57.544C126.073 57.7147 126.463 57.8 126.9 57.8ZM126.9 52.52C127.433 52.52 127.871 52.3547 128.212 52.024C128.553 51.6933 128.724 51.2667 128.724 50.744C128.724 50.232 128.553 49.816 128.212 49.496C127.871 49.1653 127.433 49 126.9 49C126.377 49 125.945 49.1653 125.604 49.496C125.263 49.816 125.092 50.232 125.092 50.744C125.092 51.2667 125.263 51.6933 125.604 52.024C125.945 52.3547 126.377 52.52 126.9 52.52Z" fill="white"/>
<rect x="1285" y="947" width="131" height="56" rx="24" fill="#B8BEC6" fill-opacity="0.32"/>
<path d="M1309.5 981L1314.04 969.896H1315.13L1319.66 981H1318.02L1314.3 971.608H1314.86L1311.1 981H1309.5ZM1311.66 978.488V977.176H1317.5V978.488H1311.66ZM1323.61 981.16C1323.19 981.16 1322.78 981.107 1322.4 981C1322.02 980.883 1321.68 980.723 1321.36 980.52C1321.04 980.307 1320.76 980.056 1320.52 979.768L1321.45 978.84C1321.73 979.181 1322.05 979.437 1322.41 979.608C1322.78 979.768 1323.18 979.848 1323.63 979.848C1324.08 979.848 1324.42 979.773 1324.67 979.624C1324.91 979.464 1325.04 979.245 1325.04 978.968C1325.04 978.691 1324.94 978.477 1324.73 978.328C1324.54 978.168 1324.29 978.04 1323.98 977.944C1323.67 977.837 1323.34 977.736 1322.99 977.64C1322.65 977.533 1322.32 977.4 1322.01 977.24C1321.7 977.08 1321.45 976.861 1321.24 976.584C1321.05 976.307 1320.96 975.939 1320.96 975.48C1320.96 975.021 1321.07 974.627 1321.29 974.296C1321.52 973.955 1321.83 973.693 1322.22 973.512C1322.63 973.331 1323.11 973.24 1323.68 973.24C1324.27 973.24 1324.8 973.347 1325.26 973.56C1325.73 973.763 1326.11 974.072 1326.41 974.488L1325.48 975.416C1325.27 975.139 1325 974.925 1324.68 974.776C1324.38 974.627 1324.02 974.552 1323.63 974.552C1323.21 974.552 1322.89 974.627 1322.67 974.776C1322.46 974.915 1322.35 975.112 1322.35 975.368C1322.35 975.624 1322.44 975.821 1322.64 975.96C1322.83 976.099 1323.08 976.216 1323.39 976.312C1323.71 976.408 1324.04 976.509 1324.38 976.616C1324.72 976.712 1325.05 976.845 1325.36 977.016C1325.67 977.187 1325.92 977.416 1326.11 977.704C1326.31 977.992 1326.41 978.371 1326.41 978.84C1326.41 979.555 1326.16 980.12 1325.64 980.536C1325.14 980.952 1324.47 981.16 1323.61 981.16ZM1332.89 981L1329.34 977.112L1332.86 973.4H1334.6L1330.68 977.496L1330.74 976.664L1334.74 981H1332.89ZM1328.02 981V969.576H1329.46V981H1328.02ZM1337.01 981.16C1336.71 981.16 1336.46 981.059 1336.26 980.856C1336.06 980.643 1335.97 980.392 1335.97 980.104C1335.97 979.805 1336.06 979.56 1336.26 979.368C1336.46 979.165 1336.71 979.064 1337.01 979.064C1337.31 979.064 1337.55 979.165 1337.74 979.368C1337.95 979.56 1338.05 979.805 1338.05 980.104C1338.05 980.392 1337.95 980.643 1337.74 980.856C1337.55 981.059 1337.31 981.16 1337.01 981.16ZM1341.65 981.16C1341.35 981.16 1341.1 981.059 1340.9 980.856C1340.7 980.643 1340.61 980.392 1340.61 980.104C1340.61 979.805 1340.7 979.56 1340.9 979.368C1341.1 979.165 1341.35 979.064 1341.65 979.064C1341.95 979.064 1342.19 979.165 1342.38 979.368C1342.59 979.56 1342.69 979.805 1342.69 980.104C1342.69 980.392 1342.59 980.643 1342.38 980.856C1342.19 981.059 1341.95 981.16 1341.65 981.16ZM1346.29 981.16C1345.99 981.16 1345.74 981.059 1345.54 980.856C1345.34 980.643 1345.25 980.392 1345.25 980.104C1345.25 979.805 1345.34 979.56 1345.54 979.368C1345.74 979.165 1345.99 979.064 1346.29 979.064C1346.59 979.064 1346.83 979.165 1347.02 979.368C1347.23 979.56 1347.33 979.805 1347.33 980.104C1347.33 980.392 1347.23 980.643 1347.02 980.856C1346.83 981.059 1346.59 981.16 1346.29 981.16Z" fill="#848E9C"/>
<rect x="1369" y="957" width="39" height="36" rx="16" fill="#848E9C" fill-opacity="0.64"/>
<path d="M1383.5 973.493C1383.5 977.24 1385.46 979.253 1388.45 979.253M1388.45 979.253C1391.44 979.248 1393.5 977.24 1393.5 973.493M1388.45 979.253V983M1388.45 983H1390.97M1388.45 983H1386.03M1386.18 974.129V969.571C1386.18 966.13 1390.72 966.156 1390.72 969.571L1390.72 974.129C1390.72 977.676 1386.18 977.422 1386.18 974.129Z" stroke="white" stroke-width="1.5" stroke-linecap="round"/>
<path d="M44.856 997.085C44.856 997.085 44.856 997.052 44.856 997.035C44.856 993.09 48.0543 989.891 51.9999 989.891C55.9456 989.891 59.1438 993.09 59.1438 997.035C59.1438 997.052 59.1438 997.068 59.1438 997.085H61.8915C61.8915 997.085 61.8915 997.052 61.8915 997.035C61.8915 991.573 57.4623 987.144 51.9999 987.144C46.5376 987.144 42.1084 991.573 42.1084 997.035C42.1084 997.052 42.1084 997.068 42.1084 997.085H44.856Z" fill="black"/>
<path d="M57.0501 985.05C55.7587 986.342 53.9728 987.144 51.9999 987.144C48.0543 987.144 44.856 983.946 44.856 980C44.856 976.054 48.0543 972.856 51.9999 972.856C53.9728 972.856 55.7587 973.658 57.0501 974.95L58.9955 973.004C57.204 971.213 54.7311 970.108 51.9999 970.108C46.5376 970.108 42.1084 974.538 42.1084 980C42.1084 985.462 46.5376 989.891 51.9999 989.891C54.7311 989.891 57.204 988.787 58.9955 986.995L57.0501 985.05Z" fill="black"/>
<path d="M56.3963 980C56.3963 981.214 55.9017 982.314 55.1104 983.11L57.0557 985.056C58.3471 983.764 59.1494 981.978 59.1494 980.006C59.1494 978.033 58.3471 976.247 57.0557 974.955L55.1104 976.901C55.9072 977.697 56.3963 978.797 56.3963 980.011V980Z" fill="black"/>
</g>
<defs>
<clipPath id="clip0_1250_318">
<rect width="1440" height="1024" fill="white"/>
</clipPath>
<pattern id="pattern0_1250_318" patternUnits="userSpaceOnUse" patternTransform="matrix(52 0 0 52 0 0)" preserveAspectRatio="none" viewBox="0 0 52 52" width="1" height="1">
<g id="pattern0_1250_318_inner">
<rect width="52" height="52" fill="white"/>
<circle cx="26" cy="26" r="2" fill="#E9E9E9"/>
</g>
</pattern></defs>
</svg>
