<?xml version="1.0" encoding="UTF-8"?>
<svg id="Layer_2" data-name="Layer 2" xmlns="http://www.w3.org/2000/svg" viewBox="0 0 36 49.09">
  <g id="CadenceV3A2">
    <g>
      <path d="M5,49.09s0-.06,0-.09c0-7.18,5.82-13,13-13s13,5.82,13,13c0,.03,0,.06,0,.09h5s0-.06,0-.09c0-9.94-8.06-18-18-18S0,39.06,0,49c0,.03,0,.06,0,.09h5Z"/>
      <path d="M27.19,27.19c-2.35,2.35-5.6,3.81-9.19,3.81-7.18,0-13-5.82-13-13s5.82-13,13-13c3.59,0,6.84,1.46,9.19,3.81l3.54-3.54c-3.26-3.26-7.76-5.27-12.73-5.27C8.06,0,0,8.06,0,18s8.06,18,18,18c4.97,0,9.47-2.01,12.73-5.27l-3.54-3.54Z"/>
      <path d="M26,18c0,2.21-.9,4.21-2.34,5.66l3.54,3.54c2.35-2.35,3.81-5.6,3.81-9.19s-1.46-6.84-3.81-9.19l-3.54,3.54c1.45,1.45,2.34,3.45,2.34,5.66Z"/>
    </g>
  </g>
</svg>