<svg width="115" height="188" viewBox="0 0 115 188" fill="none" xmlns="http://www.w3.org/2000/svg">
<rect x="0.5" y="0.5" width="114" height="187" rx="4.5" stroke="#9747FF" stroke-dasharray="10 5"/>
<rect x="20" y="20" width="75" height="64" rx="20" fill="white"/>
<path d="M40.7632 55.316L43.8352 52.076C44.1472 51.756 44.3912 51.48 44.5672 51.248C44.7432 51.008 44.8672 50.788 44.9392 50.588C45.0192 50.388 45.0592 50.18 45.0592 49.964C45.0592 49.54 44.9232 49.208 44.6512 48.968C44.3792 48.728 44.0272 48.608 43.5952 48.608C43.1712 48.608 42.7992 48.712 42.4792 48.92C42.1592 49.12 41.8752 49.432 41.6272 49.856L40.8352 49.196C41.1632 48.652 41.5592 48.244 42.0232 47.972C42.4872 47.692 43.0232 47.552 43.6312 47.552C44.1432 47.552 44.5872 47.652 44.9632 47.852C45.3472 48.052 45.6432 48.332 45.8512 48.692C46.0592 49.052 46.1632 49.472 46.1632 49.952C46.1632 50.296 46.1192 50.604 46.0312 50.876C45.9512 51.148 45.8032 51.428 45.5872 51.716C45.3792 51.996 45.0872 52.332 44.7112 52.724L42.2272 55.28L40.7632 55.316ZM40.7632 56V55.316L41.7232 54.992H46.3552V56H40.7632ZM47.2554 53.132L50.2914 47.672H51.5634L48.4674 53.132H47.2554ZM47.2554 53.828V53.132L47.7354 52.82H53.6394V53.828H47.2554ZM51.3234 56V50.492H52.4394V56H51.3234ZM56.6953 56.48L60.0313 47.204H61.0393L57.7153 56.48H56.6953ZM65.7752 56V47.672H66.8912V56H65.7752ZM64.0712 48.68V47.672H66.7712V48.68H64.0712ZM71.2434 56.12C70.6914 56.12 70.1954 55.992 69.7554 55.736C69.3234 55.48 68.9794 55.136 68.7234 54.704C68.4674 54.272 68.3394 53.792 68.3394 53.264C68.3394 52.528 68.5954 51.796 69.1074 51.068L71.5554 47.672H72.8634L70.3554 51.092L69.9474 51.308C70.0434 51.14 70.1594 51 70.2954 50.888C70.4314 50.768 70.5994 50.676 70.7994 50.612C70.9994 50.548 71.2354 50.516 71.5074 50.516C71.9954 50.516 72.4354 50.632 72.8274 50.864C73.2274 51.096 73.5474 51.416 73.7874 51.824C74.0354 52.224 74.1594 52.692 74.1594 53.228C74.1594 53.756 74.0274 54.24 73.7634 54.68C73.5074 55.12 73.1554 55.472 72.7074 55.736C72.2674 55.992 71.7794 56.12 71.2434 56.12ZM71.2434 55.064C71.5794 55.064 71.8794 54.984 72.1434 54.824C72.4154 54.656 72.6274 54.436 72.7794 54.164C72.9394 53.884 73.0194 53.572 73.0194 53.228C73.0194 52.884 72.9394 52.576 72.7794 52.304C72.6274 52.024 72.4154 51.804 72.1434 51.644C71.8794 51.484 71.5794 51.404 71.2434 51.404C70.9074 51.404 70.6034 51.484 70.3314 51.644C70.0674 51.804 69.8554 52.024 69.6954 52.304C69.5434 52.576 69.4674 52.884 69.4674 53.228C69.4674 53.572 69.5434 53.884 69.6954 54.164C69.8554 54.444 70.0674 54.664 70.3314 54.824C70.6034 54.984 70.9074 55.064 71.2434 55.064Z" fill="black" fill-opacity="0.72"/>
<rect x="20" y="104" width="75" height="64" rx="20" fill="#121212"/>
<path d="M40.7632 139.316L43.8352 136.076C44.1472 135.756 44.3912 135.48 44.5672 135.248C44.7432 135.008 44.8672 134.788 44.9392 134.588C45.0192 134.388 45.0592 134.18 45.0592 133.964C45.0592 133.54 44.9232 133.208 44.6512 132.968C44.3792 132.728 44.0272 132.608 43.5952 132.608C43.1712 132.608 42.7992 132.712 42.4792 132.92C42.1592 133.12 41.8752 133.432 41.6272 133.856L40.8352 133.196C41.1632 132.652 41.5592 132.244 42.0232 131.972C42.4872 131.692 43.0232 131.552 43.6312 131.552C44.1432 131.552 44.5872 131.652 44.9632 131.852C45.3472 132.052 45.6432 132.332 45.8512 132.692C46.0592 133.052 46.1632 133.472 46.1632 133.952C46.1632 134.296 46.1192 134.604 46.0312 134.876C45.9512 135.148 45.8032 135.428 45.5872 135.716C45.3792 135.996 45.0872 136.332 44.7112 136.724L42.2272 139.28L40.7632 139.316ZM40.7632 140V139.316L41.7232 138.992H46.3552V140H40.7632ZM47.2554 137.132L50.2914 131.672H51.5634L48.4674 137.132H47.2554ZM47.2554 137.828V137.132L47.7354 136.82H53.6394V137.828H47.2554ZM51.3234 140V134.492H52.4394V140H51.3234ZM56.6953 140.48L60.0313 131.204H61.0393L57.7153 140.48H56.6953ZM65.7752 140V131.672H66.8912V140H65.7752ZM64.0712 132.68V131.672H66.7712V132.68H64.0712ZM71.2434 140.12C70.6914 140.12 70.1954 139.992 69.7554 139.736C69.3234 139.48 68.9794 139.136 68.7234 138.704C68.4674 138.272 68.3394 137.792 68.3394 137.264C68.3394 136.528 68.5954 135.796 69.1074 135.068L71.5554 131.672H72.8634L70.3554 135.092L69.9474 135.308C70.0434 135.14 70.1594 135 70.2954 134.888C70.4314 134.768 70.5994 134.676 70.7994 134.612C70.9994 134.548 71.2354 134.516 71.5074 134.516C71.9954 134.516 72.4354 134.632 72.8274 134.864C73.2274 135.096 73.5474 135.416 73.7874 135.824C74.0354 136.224 74.1594 136.692 74.1594 137.228C74.1594 137.756 74.0274 138.24 73.7634 138.68C73.5074 139.12 73.1554 139.472 72.7074 139.736C72.2674 139.992 71.7794 140.12 71.2434 140.12ZM71.2434 139.064C71.5794 139.064 71.8794 138.984 72.1434 138.824C72.4154 138.656 72.6274 138.436 72.7794 138.164C72.9394 137.884 73.0194 137.572 73.0194 137.228C73.0194 136.884 72.9394 136.576 72.7794 136.304C72.6274 136.024 72.4154 135.804 72.1434 135.644C71.8794 135.484 71.5794 135.404 71.2434 135.404C70.9074 135.404 70.6034 135.484 70.3314 135.644C70.0674 135.804 69.8554 136.024 69.6954 136.304C69.5434 136.576 69.4674 136.884 69.4674 137.228C69.4674 137.572 69.5434 137.884 69.6954 138.164C69.8554 138.444 70.0674 138.664 70.3314 138.824C70.6034 138.984 70.9074 139.064 71.2434 139.064Z" fill="white" fill-opacity="0.88"/>
</svg>
