<svg width="153" height="188" viewBox="0 0 153 188" fill="none" xmlns="http://www.w3.org/2000/svg">
<rect x="0.5" y="0.5" width="152" height="187" rx="4.5" stroke="#9747FF" stroke-dasharray="10 5"/>
<rect x="20" y="20" width="113" height="64" rx="20" fill="white"/>
<path d="M56.2645 58.16C55.5392 58.16 54.8778 58.0267 54.2805 57.76C53.6938 57.4827 53.1978 57.0827 52.7925 56.56L53.8165 55.536C54.0618 55.9093 54.3978 56.208 54.8245 56.432C55.2512 56.6453 55.7258 56.752 56.2485 56.752C56.7392 56.752 57.1605 56.6613 57.5125 56.48C57.8752 56.288 58.1578 56.0213 58.3605 55.68C58.5738 55.3387 58.6805 54.944 58.6805 54.496C58.6805 54.0373 58.5738 53.6427 58.3605 53.312C58.1578 52.9707 57.8698 52.7093 57.4965 52.528C57.1232 52.3467 56.6805 52.256 56.1685 52.256C55.9765 52.256 55.7845 52.272 55.5925 52.304C55.4005 52.3253 55.2138 52.3627 55.0325 52.416L55.6725 51.552C55.8752 51.456 56.0938 51.3813 56.3285 51.328C56.5632 51.2747 56.7978 51.248 57.0325 51.248C57.6298 51.248 58.1632 51.3867 58.6325 51.664C59.1125 51.9413 59.4912 52.3307 59.7685 52.832C60.0565 53.3333 60.2005 53.9147 60.2005 54.576C60.2005 55.28 60.0298 55.904 59.6885 56.448C59.3578 56.9813 58.8992 57.4027 58.3125 57.712C57.7258 58.0107 57.0432 58.16 56.2645 58.16ZM55.0325 52.416V51.504L58.2805 47.808L60.0725 47.792L56.7285 51.584L55.0325 52.416ZM53.3205 48.24V46.896H60.0725V47.792L58.7605 48.24H53.3205ZM61.4499 57.088L65.5459 52.768C65.9619 52.3413 66.2872 51.9733 66.5219 51.664C66.7565 51.344 66.9219 51.0507 67.0179 50.784C67.1245 50.5173 67.1779 50.24 67.1779 49.952C67.1779 49.3867 66.9965 48.944 66.6339 48.624C66.2712 48.304 65.8019 48.144 65.2259 48.144C64.6605 48.144 64.1645 48.2827 63.7379 48.56C63.3112 48.8267 62.9325 49.2427 62.6019 49.808L61.5459 48.928C61.9832 48.2027 62.5112 47.6587 63.1299 47.296C63.7485 46.9227 64.4632 46.736 65.2739 46.736C65.9565 46.736 66.5485 46.8693 67.0499 47.136C67.5619 47.4027 67.9565 47.776 68.2339 48.256C68.5112 48.736 68.6499 49.296 68.6499 49.936C68.6499 50.3947 68.5912 50.8053 68.4739 51.168C68.3672 51.5307 68.1699 51.904 67.8819 52.288C67.6045 52.6613 67.2152 53.1093 66.7139 53.632L63.4019 57.04L61.4499 57.088ZM61.4499 58V57.088L62.7299 56.656H68.9059V58H61.4499ZM73.1303 58.64L77.5783 46.272H78.9223L74.4903 58.64H73.1303ZM82.9967 57.088L87.0928 52.768C87.5088 52.3413 87.8341 51.9733 88.0688 51.664C88.3034 51.344 88.4688 51.0507 88.5648 50.784C88.6714 50.5173 88.7248 50.24 88.7248 49.952C88.7248 49.3867 88.5434 48.944 88.1808 48.624C87.8181 48.304 87.3488 48.144 86.7728 48.144C86.2074 48.144 85.7114 48.2827 85.2848 48.56C84.8581 48.8267 84.4794 49.2427 84.1488 49.808L83.0928 48.928C83.5301 48.2027 84.0581 47.6587 84.6768 47.296C85.2954 46.9227 86.0101 46.736 86.8208 46.736C87.5034 46.736 88.0954 46.8693 88.5968 47.136C89.1088 47.4027 89.5034 47.776 89.7808 48.256C90.0581 48.736 90.1968 49.296 90.1968 49.936C90.1968 50.3947 90.1381 50.8053 90.0208 51.168C89.9141 51.5307 89.7168 51.904 89.4288 52.288C89.1514 52.6613 88.7621 53.1093 88.2608 53.632L84.9488 57.04L82.9967 57.088ZM82.9967 58V57.088L84.2768 56.656H90.4528V58H82.9967ZM91.653 54.176L95.701 46.896H97.397L93.269 54.176H91.653ZM91.653 55.104V54.176L92.293 53.76H100.165V55.104H91.653ZM97.077 58V50.656H98.565V58H97.077Z" fill="black" fill-opacity="0.72"/>
<rect x="20" y="104" width="113" height="64" rx="20" fill="#121212"/>
<path d="M56.2645 142.16C55.5392 142.16 54.8778 142.027 54.2805 141.76C53.6938 141.483 53.1978 141.083 52.7925 140.56L53.8165 139.536C54.0618 139.909 54.3978 140.208 54.8245 140.432C55.2512 140.645 55.7258 140.752 56.2485 140.752C56.7392 140.752 57.1605 140.661 57.5125 140.48C57.8752 140.288 58.1578 140.021 58.3605 139.68C58.5738 139.339 58.6805 138.944 58.6805 138.496C58.6805 138.037 58.5738 137.643 58.3605 137.312C58.1578 136.971 57.8698 136.709 57.4965 136.528C57.1232 136.347 56.6805 136.256 56.1685 136.256C55.9765 136.256 55.7845 136.272 55.5925 136.304C55.4005 136.325 55.2138 136.363 55.0325 136.416L55.6725 135.552C55.8752 135.456 56.0938 135.381 56.3285 135.328C56.5632 135.275 56.7978 135.248 57.0325 135.248C57.6298 135.248 58.1632 135.387 58.6325 135.664C59.1125 135.941 59.4912 136.331 59.7685 136.832C60.0565 137.333 60.2005 137.915 60.2005 138.576C60.2005 139.28 60.0298 139.904 59.6885 140.448C59.3578 140.981 58.8992 141.403 58.3125 141.712C57.7258 142.011 57.0432 142.16 56.2645 142.16ZM55.0325 136.416V135.504L58.2805 131.808L60.0725 131.792L56.7285 135.584L55.0325 136.416ZM53.3205 132.24V130.896H60.0725V131.792L58.7605 132.24H53.3205ZM61.4499 141.088L65.5459 136.768C65.9619 136.341 66.2872 135.973 66.5219 135.664C66.7565 135.344 66.9219 135.051 67.0179 134.784C67.1245 134.517 67.1779 134.24 67.1779 133.952C67.1779 133.387 66.9965 132.944 66.6339 132.624C66.2712 132.304 65.8019 132.144 65.2259 132.144C64.6605 132.144 64.1645 132.283 63.7379 132.56C63.3112 132.827 62.9325 133.243 62.6019 133.808L61.5459 132.928C61.9832 132.203 62.5112 131.659 63.1299 131.296C63.7485 130.923 64.4632 130.736 65.2739 130.736C65.9565 130.736 66.5485 130.869 67.0499 131.136C67.5619 131.403 67.9565 131.776 68.2339 132.256C68.5112 132.736 68.6499 133.296 68.6499 133.936C68.6499 134.395 68.5912 134.805 68.4739 135.168C68.3672 135.531 68.1699 135.904 67.8819 136.288C67.6045 136.661 67.2152 137.109 66.7139 137.632L63.4019 141.04L61.4499 141.088ZM61.4499 142V141.088L62.7299 140.656H68.9059V142H61.4499ZM73.1303 142.64L77.5783 130.272H78.9223L74.4903 142.64H73.1303ZM82.9967 141.088L87.0928 136.768C87.5088 136.341 87.8341 135.973 88.0688 135.664C88.3034 135.344 88.4688 135.051 88.5648 134.784C88.6714 134.517 88.7248 134.24 88.7248 133.952C88.7248 133.387 88.5434 132.944 88.1808 132.624C87.8181 132.304 87.3488 132.144 86.7728 132.144C86.2074 132.144 85.7114 132.283 85.2848 132.56C84.8581 132.827 84.4794 133.243 84.1488 133.808L83.0928 132.928C83.5301 132.203 84.0581 131.659 84.6768 131.296C85.2954 130.923 86.0101 130.736 86.8208 130.736C87.5034 130.736 88.0954 130.869 88.5968 131.136C89.1088 131.403 89.5034 131.776 89.7808 132.256C90.0581 132.736 90.1968 133.296 90.1968 133.936C90.1968 134.395 90.1381 134.805 90.0208 135.168C89.9141 135.531 89.7168 135.904 89.4288 136.288C89.1514 136.661 88.7621 137.109 88.2608 137.632L84.9488 141.04L82.9967 141.088ZM82.9967 142V141.088L84.2768 140.656H90.4528V142H82.9967ZM91.653 138.176L95.701 130.896H97.397L93.269 138.176H91.653ZM91.653 139.104V138.176L92.293 137.76H100.165V139.104H91.653ZM97.077 142V134.656H98.565V142H97.077Z" fill="white" fill-opacity="0.88"/>
</svg>
