<svg width="88" height="124" viewBox="0 0 88 124" fill="none" xmlns="http://www.w3.org/2000/svg">
<rect x="0.5" y="0.5" width="87" height="123" rx="4.5" stroke="#9747FF" stroke-dasharray="10 5"/>
<rect x="20" y="20" width="48" height="32" rx="16" fill="white"/>
<path d="M35.5813 40.12C35.0293 40.12 34.5413 40.016 34.1173 39.808C33.7013 39.6 33.3773 39.312 33.1453 38.944C32.9133 38.576 32.7973 38.16 32.7973 37.696C32.7973 37.32 32.8693 36.976 33.0133 36.664C33.1573 36.352 33.3693 36.088 33.6493 35.872C33.9293 35.648 34.2573 35.488 34.6333 35.392L34.6693 35.716C34.3493 35.628 34.0773 35.488 33.8533 35.296C33.6293 35.096 33.4573 34.864 33.3373 34.6C33.2253 34.328 33.1693 34.04 33.1693 33.736C33.1693 33.304 33.2733 32.924 33.4813 32.596C33.6893 32.268 33.9733 32.012 34.3333 31.828C34.7013 31.636 35.1173 31.54 35.5813 31.54C36.0533 31.54 36.4693 31.636 36.8293 31.828C37.1893 32.012 37.4733 32.268 37.6813 32.596C37.8893 32.924 37.9933 33.304 37.9933 33.736C37.9933 34.04 37.9333 34.328 37.8133 34.6C37.7013 34.864 37.5333 35.096 37.3093 35.296C37.0933 35.488 36.8253 35.628 36.5053 35.716L36.5293 35.392C36.9133 35.488 37.2413 35.648 37.5133 35.872C37.7933 36.088 38.0053 36.352 38.1493 36.664C38.3013 36.976 38.3773 37.32 38.3773 37.696C38.3773 38.16 38.2613 38.576 38.0293 38.944C37.7973 39.312 37.4693 39.6 37.0453 39.808C36.6293 40.016 36.1413 40.12 35.5813 40.12ZM35.5813 39.1C35.9173 39.1 36.2093 39.036 36.4573 38.908C36.7133 38.772 36.9133 38.588 37.0573 38.356C37.2093 38.124 37.2853 37.856 37.2853 37.552C37.2853 37.256 37.2093 36.992 37.0573 36.76C36.9133 36.528 36.7133 36.348 36.4573 36.22C36.2093 36.084 35.9173 36.016 35.5813 36.016C35.2533 36.016 34.9613 36.084 34.7053 36.22C34.4493 36.348 34.2453 36.528 34.0933 36.76C33.9493 36.992 33.8773 37.256 33.8773 37.552C33.8773 37.856 33.9493 38.124 34.0933 38.356C34.2453 38.588 34.4493 38.772 34.7053 38.908C34.9613 39.036 35.2533 39.1 35.5813 39.1ZM35.5813 35.14C35.9813 35.14 36.3093 35.016 36.5653 34.768C36.8213 34.52 36.9493 34.2 36.9493 33.808C36.9493 33.424 36.8213 33.112 36.5653 32.872C36.3093 32.624 35.9813 32.5 35.5813 32.5C35.1893 32.5 34.8653 32.624 34.6093 32.872C34.3533 33.112 34.2253 33.424 34.2253 33.808C34.2253 34.2 34.3533 34.52 34.6093 34.768C34.8653 35.016 35.1893 35.14 35.5813 35.14ZM41.543 40.48L44.879 31.204H45.887L42.563 40.48H41.543ZM48.9429 37.132L51.9789 31.672H53.2509L50.1549 37.132H48.9429ZM48.9429 37.828V37.132L49.4229 36.82H55.3269V37.828H48.9429ZM53.0109 40V34.492H54.1269V40H53.0109Z" fill="black" fill-opacity="0.64"/>
<rect x="20" y="72" width="48" height="32" rx="16" fill="black"/>
<path d="M35.5813 92.12C35.0293 92.12 34.5413 92.016 34.1173 91.808C33.7013 91.6 33.3773 91.312 33.1453 90.944C32.9133 90.576 32.7973 90.16 32.7973 89.696C32.7973 89.32 32.8693 88.976 33.0133 88.664C33.1573 88.352 33.3693 88.088 33.6493 87.872C33.9293 87.648 34.2573 87.488 34.6333 87.392L34.6693 87.716C34.3493 87.628 34.0773 87.488 33.8533 87.296C33.6293 87.096 33.4573 86.864 33.3373 86.6C33.2253 86.328 33.1693 86.04 33.1693 85.736C33.1693 85.304 33.2733 84.924 33.4813 84.596C33.6893 84.268 33.9733 84.012 34.3333 83.828C34.7013 83.636 35.1173 83.54 35.5813 83.54C36.0533 83.54 36.4693 83.636 36.8293 83.828C37.1893 84.012 37.4733 84.268 37.6813 84.596C37.8893 84.924 37.9933 85.304 37.9933 85.736C37.9933 86.04 37.9333 86.328 37.8133 86.6C37.7013 86.864 37.5333 87.096 37.3093 87.296C37.0933 87.488 36.8253 87.628 36.5053 87.716L36.5293 87.392C36.9133 87.488 37.2413 87.648 37.5133 87.872C37.7933 88.088 38.0053 88.352 38.1493 88.664C38.3013 88.976 38.3773 89.32 38.3773 89.696C38.3773 90.16 38.2613 90.576 38.0293 90.944C37.7973 91.312 37.4693 91.6 37.0453 91.808C36.6293 92.016 36.1413 92.12 35.5813 92.12ZM35.5813 91.1C35.9173 91.1 36.2093 91.036 36.4573 90.908C36.7133 90.772 36.9133 90.588 37.0573 90.356C37.2093 90.124 37.2853 89.856 37.2853 89.552C37.2853 89.256 37.2093 88.992 37.0573 88.76C36.9133 88.528 36.7133 88.348 36.4573 88.22C36.2093 88.084 35.9173 88.016 35.5813 88.016C35.2533 88.016 34.9613 88.084 34.7053 88.22C34.4493 88.348 34.2453 88.528 34.0933 88.76C33.9493 88.992 33.8773 89.256 33.8773 89.552C33.8773 89.856 33.9493 90.124 34.0933 90.356C34.2453 90.588 34.4493 90.772 34.7053 90.908C34.9613 91.036 35.2533 91.1 35.5813 91.1ZM35.5813 87.14C35.9813 87.14 36.3093 87.016 36.5653 86.768C36.8213 86.52 36.9493 86.2 36.9493 85.808C36.9493 85.424 36.8213 85.112 36.5653 84.872C36.3093 84.624 35.9813 84.5 35.5813 84.5C35.1893 84.5 34.8653 84.624 34.6093 84.872C34.3533 85.112 34.2253 85.424 34.2253 85.808C34.2253 86.2 34.3533 86.52 34.6093 86.768C34.8653 87.016 35.1893 87.14 35.5813 87.14ZM41.543 92.48L44.879 83.204H45.887L42.563 92.48H41.543ZM48.9429 89.132L51.9789 83.672H53.2509L50.1549 89.132H48.9429ZM48.9429 89.828V89.132L49.4229 88.82H55.3269V89.828H48.9429ZM53.0109 92V86.492H54.1269V92H53.0109Z" fill="white" fill-opacity="0.88"/>
</svg>
